<svg xmlns="http://www.w3.org/2000/svg" width="48" height="48" viewBox="0 0 48 48">
  <g id="Group_4" data-name="Group 4" transform="translate(-266 -980)">
    <circle id="Ellipse_28" data-name="Ellipse 28" cx="18" cy="18" r="18" transform="translate(272 986)" fill="#00aeef"/>
    <g id="Ellipse_29" data-name="Ellipse 29" transform="translate(266 980)" fill="none" stroke="#d1d1d1" stroke-width="1" stroke-dasharray="4">
      <circle cx="24" cy="24" r="24" stroke="none"/>
      <circle cx="24" cy="24" r="23.5" fill="none"/>
    </g>
    <path id="stethoscope" d="M1,3.239A2.239,2.239,0,0,1,3.239,1H3.8a.746.746,0,1,1,0,1.492h-.56a.746.746,0,0,0-.746.746V6.97a3.731,3.731,0,0,0,7.462,0V3.239a.746.746,0,0,0-.746-.746h-.56A.746.746,0,0,1,8.648,1h.56a2.239,2.239,0,0,1,2.239,2.239V6.97A5.224,5.224,0,0,1,6.97,12.14v.053a3.731,3.731,0,0,0,7.41.623.746.746,0,0,1,1.472.247,5.224,5.224,0,0,1-10.375-.87V12.14A5.224,5.224,0,0,1,1,6.97ZM15.178,10.7a2.239,2.239,0,1,0-2.239-2.239A2.239,2.239,0,0,0,15.178,10.7Z" transform="translate(280.792 994.792)" fill="#fff" fill-rule="evenodd"/>
  </g>
</svg>
