<svg width="40" height="40" viewBox="0 0 40 40" fill="none" xmlns="http://www.w3.org/2000/svg">
<path d="M21.9603 12.3416C21.5289 12.3416 21.1792 11.9919 21.1792 11.5605V10.6941C21.1792 10.2627 21.5289 9.91296 21.9603 9.91296C22.3917 9.91296 22.7414 10.2627 22.7414 10.6941V11.5605C22.7413 11.9919 22.3916 12.3416 21.9603 12.3416Z" fill="#005BAB"/>
<path d="M21.9603 16.1393C21.5289 16.1393 21.1792 15.7896 21.1792 15.3582V14.4919C21.1792 14.0605 21.5289 13.7108 21.9603 13.7108C22.3917 13.7108 22.7414 14.0605 22.7414 14.4919V15.3582C22.7413 15.7896 22.3916 16.1393 21.9603 16.1393Z" fill="#005BAB"/>
<path d="M24.2923 13.8073H23.4259C22.9945 13.8073 22.6448 13.4576 22.6448 13.0262C22.6448 12.5948 22.9945 12.2451 23.4259 12.2451H24.2923C24.7237 12.2451 25.0734 12.5948 25.0734 13.0262C25.0734 13.4576 24.7237 13.8073 24.2923 13.8073Z" fill="#005BAB"/>
<path d="M20.4944 13.8073H19.628C19.1966 13.8073 18.8469 13.4576 18.8469 13.0262C18.8469 12.5948 19.1966 12.2451 19.628 12.2451H20.4944C20.9258 12.2451 21.2755 12.5948 21.2755 13.0262C21.2755 13.4576 20.9258 13.8073 20.4944 13.8073Z" fill="#005BAB"/>
<path d="M38.4052 18.2972L35.0651 12.6365C34.9784 12.489 34.859 12.4029 34.859 12.4029C34.8544 12.3994 34.7424 12.3194 34.6748 12.2997L21.5972 7.04083L18.0291 5.56106L16.5046 2.10645C16.3796 1.8234 16.0994 1.64075 15.7899 1.64075C15.4805 1.64075 15.2003 1.8234 15.0753 2.10645L13.5509 5.56106L9.98112 7.04153C9.64878 7.17942 9.44823 7.52981 9.51057 7.89653C9.55643 8.16645 9.74948 8.38848 10.0024 8.49333L12.371 9.47567C12.371 9.47567 5.3226 12.3007 5.32213 12.3009C5.32213 12.3009 5.22807 12.3459 5.2276 12.3462C5.10276 12.4165 5.00331 12.5179 4.93518 12.6362L1.59495 18.2971C1.43596 18.5665 1.44893 18.9138 1.65354 19.1778C1.72768 19.2735 1.82643 19.3474 1.93502 19.4008L4.83081 20.8276V32.9015C4.83081 33.2116 5.01424 33.4924 5.29831 33.6169L19.6864 39.9251C19.6864 39.9251 19.6865 39.9251 19.6865 39.9252C19.8827 40.0241 20.1145 40.025 20.3108 39.9265C20.3126 39.9257 20.3135 39.9251 20.3136 39.9251L34.7017 33.6168C34.9857 33.4923 35.1692 33.2116 35.1692 32.9014V20.8278L38.0649 19.401C38.1735 19.3475 38.2723 19.2736 38.3464 19.1779C38.5513 18.9139 38.5642 18.5666 38.4052 18.2972ZM20.0001 18.4817L7.63081 13.0586L13.8211 10.5774L15.0754 13.4197C15.2003 13.7028 15.4806 13.8854 15.79 13.8854C16.0995 13.8854 16.3797 13.7028 16.5046 13.4197L18.0292 9.96504L21.3042 8.60668L32.3721 13.0573L20.0001 18.4817ZM14.4383 6.88418C14.6239 6.80723 14.7725 6.66176 14.8537 6.47801L15.79 4.35637L16.7264 6.47801C16.8074 6.66176 16.9562 6.80715 17.1417 6.88418L19.261 7.76309L17.1417 8.64208C16.9563 8.71903 16.8075 8.8645 16.7264 9.04817L15.79 11.1699L14.8537 9.04817C14.7726 8.8645 14.6239 8.71903 14.4383 8.64208L12.3191 7.76309L14.4383 6.88418ZM5.93268 14.0197L18.9229 19.715L16.3147 24.7446L3.36831 18.3657L5.93268 14.0197ZM33.6072 32.3913L20.7812 38.0147V32.8032C20.7812 32.3718 20.4315 32.0221 20.0001 32.0221C19.5687 32.0221 19.219 32.3718 19.219 32.8032V38.0147L6.39299 32.3913V21.5975L16.3106 26.484C16.4215 26.5387 16.5392 26.5646 16.6553 26.5646C16.938 26.5646 17.2104 26.4105 17.3492 26.1429L19.2191 22.5373V25.7413C19.2191 26.1727 19.5688 26.5224 20.0002 26.5224C20.4316 26.5224 20.7813 26.1727 20.7813 25.7413V22.5373L22.6511 26.1429C22.7899 26.4106 23.0623 26.5646 23.3451 26.5646C23.461 26.5646 23.5789 26.5386 23.6898 26.484L33.6074 21.5975V32.3913H33.6072ZM23.6855 24.7446L21.0773 19.715L34.0675 14.0197L36.6318 18.3657L23.6855 24.7446Z" fill="#005BAB"/>
<path d="M20.0001 30.0674C19.6731 30.0674 19.376 29.8569 19.2654 29.5495C19.1567 29.2476 19.2497 28.8984 19.4949 28.691C19.7513 28.4741 20.1269 28.4472 20.4123 28.6235C20.6862 28.7927 20.8281 29.1243 20.7656 29.4394C20.694 29.8002 20.3674 30.0674 20.0001 30.0674Z" fill="#005BAB"/>
<path d="M30.4104 9.27469C30.1009 9.27469 29.8207 9.09203 29.6957 8.80898L28.6302 6.39437L26.1332 5.35875C25.8415 5.23773 25.6514 4.95305 25.6514 4.63727C25.6514 4.32148 25.8415 4.0368 26.1332 3.91578L28.6302 2.88016L29.6957 0.465547C29.8207 0.182656 30.1009 0 30.4104 0C30.7198 0 31 0.182656 31.125 0.465703L32.1905 2.88031L34.6875 3.91594C34.9791 4.03695 35.1693 4.32164 35.1693 4.63742C35.1693 4.9532 34.9791 5.23789 34.6875 5.35891L32.1905 6.39453L31.125 8.80914C31 9.09211 30.7197 9.27469 30.4104 9.27469ZM28.4713 4.63734L29.5177 5.07133C29.7032 5.14828 29.8519 5.29375 29.9331 5.47742L30.4104 6.55898L30.8876 5.47742C30.9687 5.29367 31.1175 5.14828 31.303 5.07133L32.3494 4.63734L31.303 4.20336C31.1175 4.12641 30.9688 3.98094 30.8876 3.79727L30.4104 2.7157L29.9331 3.79727C29.852 3.98102 29.7032 4.12648 29.5177 4.20336L28.4713 4.63734Z" fill="#005BAB"/>
</svg>
