<svg width="25" height="24" viewBox="0 0 25 24" fill="none" xmlns="http://www.w3.org/2000/svg">
<g clip-path="url(#clip0_414_116)">
<path d="M10.1951 5.43127H6.63867C6.31549 5.43127 6.05273 5.69403 6.05273 6.01721V11.8266C6.05273 12.1496 6.31549 12.4125 6.63867 12.4125H10.1951C10.5183 12.4125 10.7811 12.1496 10.7811 11.8266V6.01721C10.7811 5.69403 10.5183 5.43127 10.1951 5.43127ZM8.06524 11.7094H6.75586V10.2717H8.06524V11.7094ZM8.06524 9.56854H6.75586V8.27509H8.06524V9.56854ZM8.06524 7.57196H6.75586V6.1344H8.06524V7.57196ZM10.0779 11.7094H8.76837V10.2717H10.0779V11.7094ZM10.0779 9.56854H8.76837V8.27509H10.0779V9.56854ZM10.0779 7.57196H8.76837V6.1344H10.0779V7.57196Z" fill="white"/>
<path d="M14.9104 19.467C14.7161 19.467 14.5588 19.6245 14.5588 19.8186V20.6627C14.5588 20.8568 14.7161 21.0143 14.9104 21.0143C15.1047 21.0143 15.262 20.8568 15.262 20.6627V19.8186C15.262 19.6245 15.1047 19.467 14.9104 19.467Z" fill="white"/>
<path d="M24.213 15.9166C24.1967 15.7932 24.1335 15.6832 24.0352 15.607L16.587 9.84412C16.4218 9.71649 16.2244 9.64893 16.0161 9.64893C15.8075 9.64893 15.6101 9.71649 15.4448 9.8443L14.3183 10.7159V9.70624C14.3183 9.51196 14.161 9.35468 13.9668 9.35468C13.7725 9.35468 13.6152 9.51196 13.6152 9.70624V11.2599L7.99715 15.6068C7.89937 15.6823 7.83437 15.796 7.81899 15.9181C7.80306 16.0417 7.8362 16.1644 7.91219 16.2634L8.4822 17.0048C8.57174 17.1207 8.70687 17.1872 8.85317 17.1872C8.95607 17.1872 9.0577 17.1526 9.13936 17.0894L16.0161 11.7687L21.2139 15.7905V23.1154H18.3823V22.4562C18.3823 22.262 18.225 22.1047 18.0308 22.1047C17.8365 22.1047 17.6792 22.262 17.6792 22.4562V23.1154H14.3524V17.7296H17.6792V20.8039C17.6792 20.9982 17.8365 21.1555 18.0308 21.1555C18.225 21.1555 18.3823 20.9982 18.3823 20.8039V17.6124C18.3823 17.2894 18.1194 17.0264 17.7964 17.0264H14.2354C13.9122 17.0264 13.6492 17.2894 13.6492 17.6124V23.1154H10.9777V22.1565C10.9777 21.8333 10.715 21.5706 10.3918 21.5706H10.0553C10.0833 21.4307 10.0985 21.2862 10.0985 21.1382C10.0985 19.9215 9.10842 18.9316 7.89168 18.9316C7.23122 18.9316 6.61324 19.2347 6.19997 19.7261C6.0436 19.6767 5.87734 19.6498 5.70486 19.6498C5.57815 19.6498 5.45364 19.6639 5.3326 19.6921C4.94973 19.0362 4.23525 18.6143 3.46291 18.6143C3.3807 18.6143 3.2994 18.6194 3.2192 18.6288V6.8606L8.4172 2.8385L13.6154 6.8606V8.06543C13.6154 8.2597 13.7727 8.41699 13.9669 8.41699C14.161 8.41699 14.3185 8.2597 14.3185 8.06543V7.4046L15.2941 8.15936C15.3756 8.22253 15.4772 8.25714 15.5801 8.25714C15.7268 8.25714 15.8621 8.19049 15.9512 8.0744C15.9525 8.07275 15.9538 8.07092 15.9551 8.06927L16.5011 7.33173L16.5046 7.32733C16.5407 7.2821 16.6364 7.16217 16.6141 6.98657C16.5978 6.86261 16.5344 6.75256 16.4363 6.67694L8.9883 0.914062C8.82314 0.786438 8.62575 0.718872 8.4172 0.718872C8.20864 0.718872 8.01125 0.786438 7.84591 0.914246L5.80099 2.49646V2.05334C6.07748 2.00647 6.28878 1.76587 6.28878 1.47638V0.773438C6.28878 0.450256 6.02584 0.1875 5.70284 0.1875H2.85391C2.53091 0.1875 2.26797 0.450256 2.26797 0.773438V1.4762C2.26797 1.76587 2.47927 2.00629 2.75576 2.05334V4.85266L0.398831 6.67639C0.300686 6.75183 0.235684 6.86572 0.220303 6.98749C0.20419 7.11127 0.237149 7.23395 0.313321 7.33319L0.883327 8.07458C0.972683 8.19067 1.10781 8.25714 1.2543 8.25714C1.3572 8.25714 1.45864 8.22253 1.54068 8.15936L2.51608 7.4046V18.8355C1.95797 19.1102 1.52822 19.6192 1.36856 20.2401C0.838467 20.4445 0.47427 20.9594 0.47427 21.5438C0.47427 21.6083 0.478848 21.6716 0.487271 21.7339C0.37576 21.8406 0.306179 21.9904 0.306179 22.1565V23.2328C0.306179 23.5558 0.568936 23.8187 0.892116 23.8187H22.936C23.1303 23.8187 23.2875 23.6613 23.2875 23.4672C23.2875 23.2729 23.1303 23.1156 22.936 23.1156H21.917V16.3345L22.8928 17.0894C22.9742 17.1524 23.0759 17.1872 23.1788 17.1872C23.3254 17.1872 23.4608 17.1205 23.5499 17.0043C23.5512 17.0026 23.5525 17.001 23.5538 16.9993L24.1 16.2616L24.1036 16.257C24.1395 16.212 24.2351 16.092 24.213 15.9166ZM7.89168 19.6348C8.72078 19.6348 9.39534 20.3093 9.39534 21.1382C9.39534 21.2886 9.37264 21.4336 9.33144 21.5706H7.32607C7.34127 21.4812 7.34969 21.3893 7.34969 21.2955C7.34969 20.8185 7.14553 20.3886 6.82052 20.0876C7.09847 19.8054 7.48299 19.6348 7.89168 19.6348ZM2.97109 0.890625H5.58565V1.35901H2.97109V0.890625ZM5.09786 2.06213V3.04047L3.45889 4.30865V2.06213H5.09786ZM1.29696 7.45898L1.01333 7.09003L8.27602 1.47034C8.31759 1.43829 8.36501 1.422 8.4172 1.422C8.46938 1.422 8.5168 1.43829 8.55819 1.47015L15.811 7.08215L15.5341 7.45624L8.63234 2.11597C8.50564 2.01801 8.32876 2.01801 8.20205 2.11597L1.29696 7.45898ZM10.2746 23.1156H1.0093V22.2737H4.2477C4.4418 22.2737 4.59927 22.1164 4.59927 21.9221C4.59927 21.7278 4.4418 21.5706 4.2477 21.5706H1.17831C1.17794 21.5616 1.17739 21.5528 1.17739 21.5438C1.17739 21.2122 1.41305 20.9257 1.73806 20.8627C1.8851 20.8341 1.99789 20.7156 2.01913 20.5675C2.12167 19.855 2.7424 19.3176 3.46291 19.3176C4.0613 19.3176 4.60842 19.6932 4.8243 20.252C4.85946 20.3432 4.93087 20.4155 5.02169 20.452C5.11251 20.4882 5.21413 20.4849 5.30257 20.4432C5.42892 20.3835 5.56441 20.3531 5.70486 20.3531C6.22414 20.3531 6.64657 20.7759 6.64657 21.2957C6.64657 21.3915 6.63155 21.4836 6.60482 21.5706H5.9352C5.74093 21.5706 5.58364 21.728 5.58364 21.9221C5.58364 22.1164 5.74093 22.2737 5.9352 22.2737H10.2746V23.1156ZM23.133 16.3863L16.2312 11.0462C16.1045 10.9481 15.9276 10.9481 15.8009 11.0462L8.89565 16.389L8.61202 16.0201L15.8749 10.4006C15.9165 10.3683 15.9639 10.3521 16.0161 10.3521C16.0681 10.3521 16.1157 10.3683 16.1571 10.4004L23.4099 16.0122L23.133 16.3863Z" fill="white"/>
</g>
<defs>
<clipPath id="clip0_414_116">
<rect width="24" height="24" fill="white" transform="translate(0.216309)"/>
</clipPath>
</defs>
</svg>
