<svg width="24" height="25" viewBox="0 0 24 25" fill="none" xmlns="http://www.w3.org/2000/svg">
<g clip-path="url(#clip0_191_362)">
<path d="M16.9688 2.5625H7.03125C4.29145 2.5625 2.0625 4.79145 2.0625 7.53125V17.4688C2.0625 20.2085 4.29145 22.4375 7.03125 22.4375H9.89062C10.1495 22.4375 10.3594 22.2276 10.3594 21.9688C10.3594 21.7099 10.1495 21.5 9.89062 21.5H7.03125C4.80844 21.5 3 19.6916 3 17.4688V7.53125C3 5.30844 4.80844 3.5 7.03125 3.5H16.9688C19.1916 3.5 21 5.30844 21 7.53125V17.4688C21 19.6916 19.1916 21.5 16.9688 21.5H14.1406C13.8818 21.5 13.6719 21.7099 13.6719 21.9688C13.6719 22.2276 13.8818 22.4375 14.1406 22.4375H16.9688C19.7085 22.4375 21.9375 20.2085 21.9375 17.4688V7.53125C21.9375 4.79145 19.7085 2.5625 16.9688 2.5625Z" fill="white"/>
<path d="M12.3314 21.6373C12.2442 21.5502 12.1233 21.5 12 21.5C11.8767 21.5 11.7558 21.5502 11.6686 21.6373C11.5814 21.7245 11.5312 21.8455 11.5312 21.9688C11.5312 22.092 11.5814 22.213 11.6686 22.3002C11.7558 22.3873 11.8767 22.4375 12 22.4375C12.1233 22.4375 12.2442 22.3873 12.3314 22.3002C12.4186 22.213 12.4688 22.092 12.4688 21.9688C12.4688 21.8455 12.4186 21.7245 12.3314 21.6373Z" fill="white"/>
<path d="M8.24202 7.79913C8.06498 7.61023 7.7684 7.60057 7.57945 7.77752L7.55868 7.79707C7.37038 7.97473 7.36176 8.2714 7.53946 8.45969C7.63166 8.55743 7.75593 8.60674 7.88048 8.60674C7.99588 8.60674 8.11152 8.56437 8.20209 8.47891L8.22041 8.46171C8.40932 8.28471 8.41902 7.98804 8.24202 7.79913Z" fill="white"/>
<path d="M12 6.03125C10.9704 6.03125 9.94575 6.27927 9.0367 6.74848C8.80669 6.86722 8.71645 7.14997 8.83519 7.38003C8.95397 7.61005 9.23672 7.70023 9.46673 7.58155C10.2545 7.17491 11.1068 6.96875 12 6.96875C15.0499 6.96875 17.5312 9.45008 17.5312 12.5C17.5312 15.5499 15.0499 18.0312 12 18.0312C8.95008 18.0312 6.46875 15.5499 6.46875 12.5C6.46875 11.5429 6.71695 10.5998 7.18655 9.77291C7.31438 9.54781 7.23553 9.26169 7.01039 9.13381C6.78525 9.00603 6.49917 9.08483 6.3713 9.30997C5.82173 10.2778 5.53125 11.3809 5.53125 12.5C5.53125 16.0669 8.43314 18.9688 12 18.9688C15.5669 18.9688 18.4688 16.0669 18.4688 12.5C18.4688 8.93314 15.5669 6.03125 12 6.03125Z" fill="white"/>
<path d="M12 8.28125C9.67378 8.28125 7.78125 10.1738 7.78125 12.5C7.78125 14.8262 9.67378 16.7188 12 16.7188C14.3262 16.7188 16.2188 14.8262 16.2188 12.5C16.2188 10.1738 14.3262 8.28125 12 8.28125ZM12 15.7812C10.1907 15.7812 8.71875 14.3093 8.71875 12.5C8.71875 10.6907 10.1907 9.21875 12 9.21875C13.8093 9.21875 15.2812 10.6907 15.2812 12.5C15.2812 14.3093 13.8093 15.7812 12 15.7812Z" fill="white"/>
<path d="M18.1523 4.56641C17.1702 4.56641 16.3711 5.36548 16.3711 6.34766C16.3711 7.32983 17.1702 8.12891 18.1523 8.12891C19.1345 8.12891 19.9336 7.32983 19.9336 6.34766C19.9336 5.36548 19.1345 4.56641 18.1523 4.56641ZM18.1523 7.19141C17.6871 7.19141 17.3086 6.81289 17.3086 6.34766C17.3086 5.88242 17.6871 5.50391 18.1523 5.50391C18.6176 5.50391 18.9961 5.88242 18.9961 6.34766C18.9961 6.81289 18.6176 7.19141 18.1523 7.19141Z" fill="white"/>
</g>
<defs>
<clipPath id="clip0_191_362">
<rect width="24" height="24" fill="white" transform="translate(0 0.5)"/>
</clipPath>
</defs>
</svg>
