<svg width="812" height="602" viewBox="0 0 812 602" fill="none" xmlns="http://www.w3.org/2000/svg">
<path d="M247.668 594.333C221.001 594.333 221.001 594.333 221.001 567.667V394.334V161C263.223 154.334 343.668 146.334 327.668 167.667C311.668 189 294.334 234.333 287.668 261C281.001 287.667 281.001 361 301.001 394.334C320.999 427.664 420.986 527.652 434.331 540.997L434.334 541C447.668 554.334 447.668 594.333 407.668 594.333C367.668 594.334 274.334 594.334 247.668 594.333Z" fill="white" stroke="#BEBEBE"/>
<path d="M787.667 527.666L514.334 254.333C434.334 334.333 441.001 443.222 454.334 487.666L507.667 547.666L567.667 601H781.001C823.667 590.333 803.223 547.666 787.667 527.666Z" fill="#CACACA" stroke="#BEBEBE"/>
<path d="M414.333 1H327.667H261C218.333 1 221 14.3333 221 27.6667V187.667H34.3333C7.66667 187.667 1 207.667 1 221V381C1 407.667 21 407.667 34.3333 407.667H221C221 385.444 223.987 328.683 234.333 294.333C250.345 241.175 341 154.333 414.333 87.6666C473 34.3333 438.778 7.66667 414.333 1Z" fill="#CACACA" stroke="#BEBEBE"/>
<path d="M787.654 1H547.654C492.103 58.7778 377 179.667 361 201C341 227.667 321 281 341 354.333C357 413 454.326 503.222 500.989 541C500.989 541 477.645 501 487.654 427.667C507.669 281 734.321 127.667 787.654 74.3333C830.321 31.6667 805.432 7.66667 787.654 1Z" fill="white" stroke="#BEBEBE"/>
</svg>
