<svg width="24" height="25" viewBox="0 0 24 25" fill="none" xmlns="http://www.w3.org/2000/svg">
<path d="M18.1992 17.0646C17.8318 17.3367 17.3952 17.4805 16.9365 17.4805H7.06348C5.89228 17.4805 4.93945 16.5276 4.93945 15.3564V9.64355C4.93945 8.47235 5.89228 7.51953 7.06348 7.51953H7.32378C7.44516 7.51953 7.54351 7.42115 7.54351 7.2998C7.54351 7.17846 7.44516 7.08008 7.32378 7.08008H7.06348C5.64996 7.08008 4.5 8.23004 4.5 9.64355V15.3564C4.5 16.77 5.64996 17.9199 7.06348 17.9199H16.9365C17.4901 17.9199 18.0171 17.7463 18.4607 17.4178C18.5582 17.3456 18.5787 17.2079 18.5065 17.1104C18.4343 17.0129 18.2966 16.9924 18.1992 17.0646Z" fill="white"/>
<path d="M18.1992 17.0646C17.8318 17.3367 17.3952 17.4805 16.9365 17.4805H7.06348C5.89228 17.4805 4.93945 16.5276 4.93945 15.3564V9.64355C4.93945 8.47235 5.89228 7.51953 7.06348 7.51953H7.32378C7.44516 7.51953 7.54351 7.42115 7.54351 7.2998C7.54351 7.17846 7.44516 7.08008 7.32378 7.08008H7.06348C5.64996 7.08008 4.5 8.23004 4.5 9.64355V15.3564C4.5 16.77 5.64996 17.9199 7.06348 17.9199H16.9365C17.4901 17.9199 18.0171 17.7463 18.4607 17.4178C18.5582 17.3456 18.5787 17.2079 18.5065 17.1104C18.4343 17.0129 18.2966 16.9924 18.1992 17.0646Z" stroke="black"/>
<path d="M16.9365 7.08008H8.26123C8.13985 7.08008 8.0415 7.17846 8.0415 7.2998C8.0415 7.42115 8.13985 7.51953 8.26123 7.51953H16.9365C18.1077 7.51953 19.0605 8.47235 19.0605 9.64355V15.3564C19.0605 15.7367 18.9589 16.1096 18.7667 16.435C18.705 16.5395 18.7396 16.6743 18.8441 16.736C18.8792 16.7567 18.9177 16.7665 18.9557 16.7665C19.0308 16.7665 19.1041 16.7279 19.1451 16.6585C19.3773 16.2655 19.5 15.8152 19.5 15.3564V9.64355C19.5 8.23004 18.35 7.08008 16.9365 7.08008Z" fill="white"/>
<path d="M16.9365 7.08008H8.26123C8.13985 7.08008 8.0415 7.17846 8.0415 7.2998C8.0415 7.42115 8.13985 7.51953 8.26123 7.51953H16.9365C18.1077 7.51953 19.0605 8.47235 19.0605 9.64355V15.3564C19.0605 15.7367 18.9589 16.1096 18.7667 16.435C18.705 16.5395 18.7396 16.6743 18.8441 16.736C18.8792 16.7567 18.9177 16.7665 18.9557 16.7665C19.0308 16.7665 19.1041 16.7279 19.1451 16.6585C19.3773 16.2655 19.5 15.8152 19.5 15.3564V9.64355C19.5 8.23004 18.35 7.08008 16.9365 7.08008Z" stroke="black"/>
<path d="M10.2583 14.0266C10.1369 14.0266 10.0386 14.125 10.0386 14.2464V14.5374C10.0386 14.7451 10.1466 14.9301 10.3274 15.0322C10.4154 15.0819 10.5112 15.1066 10.6069 15.1066C10.708 15.1066 10.8089 15.079 10.9002 15.0239L14.2782 12.9863C14.4502 12.8826 14.5528 12.7007 14.5528 12.4998C14.5528 12.299 14.4502 12.1171 14.2782 12.0133L10.9002 9.97574C10.7224 9.86851 10.5082 9.86541 10.3274 9.96751C10.1465 10.0696 10.0386 10.2546 10.0386 10.4622V13.3156C10.0386 13.437 10.1369 13.5354 10.2583 13.5354C10.3797 13.5354 10.478 13.437 10.478 13.3156V10.4622C10.478 10.3944 10.5238 10.3613 10.5434 10.3502C10.5631 10.3391 10.6151 10.317 10.6732 10.352L14.0512 12.3896C14.1073 12.4235 14.1134 12.478 14.1134 12.4998C14.1134 12.5217 14.1073 12.5761 14.0512 12.61L10.6732 14.6476C10.6152 14.6827 10.5631 14.6606 10.5434 14.6495C10.5238 14.6384 10.478 14.6052 10.478 14.5374V14.2463C10.478 14.125 10.3796 14.0266 10.2583 14.0266Z" fill="white"/>
<path d="M10.2583 14.0266C10.1369 14.0266 10.0386 14.125 10.0386 14.2464V14.5374C10.0386 14.7451 10.1466 14.9301 10.3274 15.0322C10.4154 15.0819 10.5112 15.1066 10.6069 15.1066C10.708 15.1066 10.8089 15.079 10.9002 15.0239L14.2782 12.9863C14.4502 12.8826 14.5528 12.7007 14.5528 12.4998C14.5528 12.299 14.4502 12.1171 14.2782 12.0133L10.9002 9.97574C10.7224 9.86851 10.5082 9.86541 10.3274 9.96751C10.1465 10.0696 10.0386 10.2546 10.0386 10.4622V13.3156C10.0386 13.437 10.1369 13.5354 10.2583 13.5354C10.3797 13.5354 10.478 13.437 10.478 13.3156V10.4622C10.478 10.3944 10.5238 10.3613 10.5434 10.3502C10.5631 10.3391 10.6151 10.317 10.6732 10.352L14.0512 12.3896C14.1073 12.4235 14.1134 12.478 14.1134 12.4998C14.1134 12.5217 14.1073 12.5761 14.0512 12.61L10.6732 14.6476C10.6152 14.6827 10.5631 14.6606 10.5434 14.6495C10.5238 14.6384 10.478 14.6052 10.478 14.5374V14.2463C10.478 14.125 10.3796 14.0266 10.2583 14.0266Z" stroke="black"/>
<rect x="0.35" y="0.85" width="23.3" height="23.3" rx="11.65" stroke="white" stroke-width="0.7"/>
</svg>
