<svg width="24" height="24" viewBox="0 0 24 24" fill="none" xmlns="http://www.w3.org/2000/svg">
<g clip-path="url(#clip0_175_127)">
<path d="M7.03125 13.4062H5.625V17.625H8.4375V16.2188H7.03125V13.4062Z" fill="white"/>
<path d="M24 3.5625H21.1875V2.85938C21.1875 1.69627 20.2412 0.75 19.0781 0.75C17.915 0.75 16.9688 1.69627 16.9688 2.85938V3.5625H15.5625V2.85938C15.5625 1.69627 14.6162 0.75 13.4531 0.75C12.29 0.75 11.3438 1.69627 11.3438 2.85938V3.5625H9.9375V2.85938C9.9375 1.69627 8.99123 0.75 7.82812 0.75C6.66502 0.75 5.71875 1.69627 5.71875 2.85938V3.5625H2.90625V11.601C1.15908 12.7285 0 14.6923 0 16.9219C0 20.4112 2.8388 23.25 6.32812 23.25C8.51756 23.25 10.4506 22.1322 11.5872 20.4375H24V3.5625ZM18.375 2.85938C18.375 2.47167 18.6904 2.15625 19.0781 2.15625C19.4658 2.15625 19.7812 2.47167 19.7812 2.85938V3.5625H18.375V2.85938ZM12.75 2.85938C12.75 2.47167 13.0654 2.15625 13.4531 2.15625C13.8408 2.15625 14.1562 2.47167 14.1562 2.85938V3.5625H12.75V2.85938ZM7.125 2.85938C7.125 2.47167 7.44042 2.15625 7.82812 2.15625C8.21583 2.15625 8.53125 2.47167 8.53125 2.85938V3.5625H7.125V2.85938ZM5.71875 4.96875V6.375H7.125V4.96875H11.3438V6.375H12.75V4.96875H16.9688V6.375H18.375V4.96875H22.5938V7.78125H4.3125V4.96875H5.71875ZM6.32812 21.8438C3.6142 21.8438 1.40625 19.6358 1.40625 16.9219C1.40625 14.208 3.6142 12 6.32812 12C9.04205 12 11.25 14.208 11.25 16.9219C11.25 19.6358 9.04205 21.8438 6.32812 21.8438ZM12.2943 19.0312C12.5284 18.3712 12.6562 17.6612 12.6562 16.9219C12.6562 13.4325 9.81745 10.5938 6.32812 10.5938C5.62373 10.5938 4.94588 10.7096 4.3125 10.923V9.1875H22.5938V19.0312H12.2943Z" fill="white"/>
<path d="M14.1562 10.5938H16.9688V12H14.1562V10.5938Z" fill="white"/>
<path d="M18.375 10.5938H21.1875V12H18.375V10.5938Z" fill="white"/>
<path d="M18.375 13.4062H21.1875V14.8125H18.375V13.4062Z" fill="white"/>
<path d="M18.375 16.2188H21.1875V17.625H18.375V16.2188Z" fill="white"/>
<path d="M14.1562 16.2188H16.9688V17.625H14.1562V16.2188Z" fill="white"/>
<path d="M14.1562 13.4062H16.9688V14.8125H14.1562V13.4062Z" fill="white"/>
</g>
<defs>
<clipPath id="clip0_175_127">
<rect width="24" height="24" fill="white"/>
</clipPath>
</defs>
</svg>
