<svg width="75" height="75" viewBox="0 0 75 75" fill="none" xmlns="http://www.w3.org/2000/svg">
<path d="M20.6396 34.4029L25.4521 39.1363C25.829 39.5069 26.3204 39.7032 26.8252 39.7032C27.0521 39.7032 27.2817 39.6635 27.5049 39.5823C28.2249 39.3203 28.7175 38.6838 28.7906 37.9212L29.4345 31.2021C29.4385 31.1595 29.4609 31.1205 29.4956 31.0951C33.9177 27.8639 36.5578 22.6694 36.5578 17.1999C36.5578 12.5605 34.7384 8.21122 31.4346 4.95326C28.1316 1.69588 23.7632 -0.0625147 19.1135 0.00208488C14.6317 0.0644872 10.4045 1.8579 7.21021 5.05213C4.01598 8.24637 2.22257 12.4738 2.16017 16.9555C2.09557 21.5978 3.85396 25.9735 7.11134 29.2765C10.3693 32.5802 14.7187 34.3995 19.358 34.3995C19.7468 34.3995 20.1401 34.3864 20.5268 34.3604C20.569 34.3578 20.6091 34.3729 20.6396 34.4029ZM19.3582 32.202C15.3114 32.202 11.5177 30.615 8.67579 27.7333C5.83458 24.8523 4.30089 21.0353 4.35729 16.9856C4.41148 13.0792 5.97667 9.39276 8.76383 6.60545C11.5511 3.81815 15.2376 2.25326 19.144 2.19876C23.1908 2.14427 27.0107 3.67606 29.8917 6.51742C32.7733 9.35921 34.3604 13.1529 34.3604 17.1996C34.3604 21.9705 32.057 26.5017 28.1989 29.3209C27.658 29.7164 27.3109 30.3255 27.2471 30.9923L26.649 37.2318L22.18 32.8364C21.7399 32.4035 21.1478 32.1626 20.5356 32.1626C20.4837 32.1626 20.4316 32.1643 20.3795 32.1679C20.0418 32.1904 19.698 32.202 19.3582 32.202Z" fill="#005BAB"/>
<path d="M72.6779 56.5506L67.2682 26.2632C66.8441 23.8925 64.7888 22.1719 62.3811 22.1719H58.9507C58.3776 21.1838 57.5944 20.3332 56.6614 19.6812L57.9732 16.079C58.325 15.112 57.8242 14.0388 56.8567 13.6865L54.9824 13.0041L57.0462 7.33358C57.3984 6.36649 56.9008 5.29847 55.9333 4.94632L51.9474 3.49569C50.98 3.14368 49.9123 3.64144 49.5603 4.60882L47.4963 10.2792L45.6213 9.59676C44.6554 9.2452 43.5834 9.74486 43.2301 10.7118L34.9624 33.426C34.6108 34.3932 35.1111 35.4663 36.0777 35.8183L36.3292 35.9099L35.3679 38.5512C35.1914 39.0365 35.2142 39.5613 35.4323 40.0293C35.6506 40.4973 36.038 40.8524 36.5232 41.0289L43.6227 43.6129C43.8386 43.6914 44.0622 43.7305 44.2851 43.7305C44.5634 43.7305 44.841 43.6696 45.1009 43.5485C45.5689 43.3302 45.9238 42.9428 46.1005 42.4576L47.0623 39.815L47.3128 39.9061C47.5214 39.9823 47.7375 40.0202 47.9531 40.0202C48.6977 40.0202 49.4244 39.5638 49.705 38.7917L51.5169 33.8163C54.6884 34.0988 57.6062 32.4448 59.0603 29.7652C59.3236 29.9108 59.5025 30.1911 59.5025 30.5128V38.9694C59.5025 39.5761 59.9942 40.068 60.6011 40.068C61.208 40.068 61.6998 39.5761 61.6998 38.9694V30.5127C61.6998 29.2468 60.9244 28.1588 59.8239 27.6975C59.9368 27.1705 59.9978 26.6245 59.9978 26.0642C59.9978 25.482 59.9314 24.9152 59.8097 24.3691H62.3809C63.723 24.3691 64.8688 25.3283 65.1052 26.6497L70.5149 56.9368C70.9454 59.3483 70.2906 61.8086 68.7178 63.6871C67.145 65.5657 64.838 66.6432 62.3884 66.6432C61.3091 66.6432 35.1439 66.6429 34.0655 66.6429V57.7522C34.5172 57.7522 52.53 57.7517 56.668 57.7517C59.4426 57.7517 61.6999 55.4946 61.6999 52.72V44.0965C61.6999 43.4897 61.2082 42.9978 60.6013 42.9978C59.9944 42.9978 59.5026 43.4897 59.5026 44.0965V52.72C59.5026 54.283 58.231 55.5545 56.668 55.5545H54.6313V51.6441C54.6313 50.6344 53.81 49.813 52.8002 49.813H29.0704C28.0606 49.813 27.2393 50.6344 27.2393 51.6441V55.9213C27.2393 56.931 28.0606 57.7523 29.0704 57.7523H31.8684V66.6431H22.0278C21.0181 66.6431 20.1968 67.4644 20.1968 68.4741V73.1689C20.1968 74.1786 21.0181 75 22.0278 75H30.4032C31.0101 75 31.5019 74.5081 31.5019 73.9014C31.5019 73.2946 31.0101 72.8027 30.4032 72.8027H22.394V68.84C26.0301 68.84 56.2189 68.8403 59.4766 68.8403V72.8027H35.5302C34.9233 72.8027 34.4315 73.2946 34.4315 73.9014C34.4315 74.5081 34.9233 75 35.5302 75H59.8429C60.8526 75 61.674 74.1786 61.674 73.1689V68.8403H62.3885C65.4902 68.8403 68.4112 67.4761 70.4027 65.0975C72.3938 62.7192 73.2231 59.6039 72.6779 56.5506ZM51.5105 5.67493L54.867 6.89647L52.9174 12.2525L49.561 11.0307L51.5105 5.67493ZM44.1262 41.4577L37.5229 39.0543L38.3941 36.6609L44.9976 39.0636L44.1262 41.4577ZM47.754 37.7282C45.8308 37.0285 38.4481 34.3424 37.1402 33.8666L45.1814 11.7748C46.1648 12.1328 55.7951 15.6384 55.7951 15.6384L54.6858 18.6847C53.9084 18.4235 53.0775 18.2798 52.2131 18.2798C47.9207 18.2798 44.4285 21.772 44.4285 26.0644C44.4285 29.3514 46.4774 32.1671 49.3642 33.3067L47.754 37.7282ZM52.2133 31.6517C49.1324 31.6517 46.6259 29.1452 46.6259 26.0644C46.6259 22.9835 49.1323 20.477 52.2133 20.477C55.2943 20.477 57.8008 22.9835 57.8008 26.0644C57.8008 29.1452 55.2941 31.6517 52.2133 31.6517ZM29.4366 52.01H52.434V55.5542C52.3079 55.5542 33.0521 55.5546 29.4366 55.5546V52.01Z" fill="#005BAB"/>
<path d="M52.2132 22.7371C50.3787 22.7371 48.886 24.2296 48.886 26.0643C48.886 27.899 50.3785 29.3916 52.2132 29.3916C54.0479 29.3916 55.5406 27.899 55.5406 26.0643C55.5406 24.2296 54.0479 22.7371 52.2132 22.7371ZM52.2132 27.1944C51.5901 27.1944 51.0833 26.6876 51.0833 26.0645C51.0833 25.4413 51.5901 24.9345 52.2132 24.9345C52.8364 24.9345 53.3434 25.4413 53.3434 26.0645C53.3434 26.6876 52.8364 27.1944 52.2132 27.1944Z" fill="#005BAB"/>
<path d="M26.1873 16.1334C28.0791 16.1334 29.6183 14.5943 29.6183 12.7024C29.6183 10.8106 28.0791 9.27148 26.1873 9.27148C24.2955 9.27148 22.7563 10.8106 22.7563 12.7024C22.7563 14.5943 24.2955 16.1334 26.1873 16.1334ZM26.1873 11.4688C26.8676 11.4688 27.421 12.0222 27.421 12.7024C27.421 13.3827 26.8676 13.9361 26.1873 13.9361C25.507 13.9361 24.9536 13.3827 24.9536 12.7024C24.9536 12.0222 25.507 11.4688 26.1873 11.4688Z" fill="#005BAB"/>
<path d="M11.4864 13.6151C9.59453 13.6151 8.05542 15.1542 8.05542 17.0461C8.05542 18.9379 9.59453 20.477 11.4864 20.477C13.3782 20.477 14.9175 18.9379 14.9175 17.0461C14.9175 15.1542 13.3782 13.6151 11.4864 13.6151ZM11.4864 18.2798C10.8061 18.2798 10.2527 17.7263 10.2527 17.0461C10.2527 16.3658 10.8061 15.8124 11.4864 15.8124C12.1668 15.8124 12.7202 16.3658 12.7202 17.0461C12.7202 17.7263 12.1668 18.2798 11.4864 18.2798Z" fill="#005BAB"/>
<path d="M28.3981 20.8206L26.7245 22.494C26.2953 22.9231 26.2953 23.6186 26.7244 24.0476C26.939 24.2622 27.2201 24.3694 27.5013 24.3694C27.7824 24.3694 28.0637 24.2622 28.2781 24.0476L29.9517 22.3742C30.3809 21.9451 30.3809 21.2496 29.9518 20.8206C29.5228 20.3915 28.827 20.3915 28.3981 20.8206Z" fill="#005BAB"/>
<path d="M17.4936 7.45771C17.0647 7.02851 16.3691 7.02866 15.94 7.45771L14.2666 9.13115C13.8375 9.5602 13.8375 10.2559 14.2667 10.6848C14.4812 10.8994 14.7624 11.0066 15.0435 11.0066C15.3247 11.0066 15.6059 10.8994 15.8205 10.6848L17.4939 9.01132C17.9228 8.58227 17.9228 7.88676 17.4936 7.45771Z" fill="#005BAB"/>
<path d="M20.9716 16.6214L19.2981 14.948C18.8691 14.519 18.1734 14.519 17.7445 14.948C17.3153 15.3771 17.3153 16.0726 17.7444 16.5016L19.4178 18.1751C19.6324 18.3897 19.9135 18.4969 20.1948 18.4969C20.4759 18.4969 20.7571 18.3897 20.9716 18.1751C21.4006 17.7462 21.4006 17.0505 20.9716 16.6214Z" fill="#005BAB"/>
<path d="M17.9173 23.7104L16.2439 25.3838C15.8148 25.8129 15.8148 26.5085 16.244 26.9374C16.4585 27.152 16.7397 27.2593 17.0208 27.2593C17.3019 27.2593 17.5832 27.152 17.7978 26.9374L19.4712 25.264C19.9003 24.835 19.9003 24.1393 19.4711 23.7104C19.042 23.2812 18.3464 23.2813 17.9173 23.7104Z" fill="#005BAB"/>
</svg>
