<svg width="75" height="75" viewBox="0 0 75 75" fill="none" xmlns="http://www.w3.org/2000/svg">
<path d="M74.9284 73.5112L63.9421 44.5703C63.8508 44.3299 63.6781 44.1292 63.4543 44.0031L51.7522 37.4104L55.1687 31.9935C57.2655 28.6662 58.3739 24.8212 58.3739 20.874C58.3739 9.364 49.0099 0 37.4999 0C25.9899 0 16.6259 9.364 16.6259 20.874C16.6259 24.8222 17.7348 28.6674 19.8327 31.9938C19.8888 32.083 23.2483 37.4107 23.2483 37.4107L11.5458 44.0031C11.3219 44.1292 11.1492 44.3299 11.0579 44.5703L0.0715884 73.5112C-0.0926204 73.9436 0.0317447 74.4326 0.382281 74.7342C0.733258 75.0359 1.23497 75.0856 1.63794 74.8584L19.2992 64.9083L36.9606 74.8584C37.2953 75.0469 37.7044 75.0469 38.0391 74.8584L55.7004 64.9083L73.3617 74.8584C73.5302 74.9533 73.7161 74.9999 73.9009 74.9999C74.1582 74.9999 74.4133 74.9098 74.6175 74.7343C74.9684 74.4326 75.0926 73.9436 74.9284 73.5112ZM38.5987 56.94C39.286 56.6974 39.8819 56.2302 40.2863 55.5899C40.3421 55.502 49.6949 40.6728 49.6949 40.6728L54.4584 63.0861L38.5987 72.021V56.94ZM21.6913 30.8214C19.815 27.8464 18.8233 24.4066 18.8233 20.8738C18.8233 10.5754 27.2016 2.19712 37.5001 2.19712C47.7985 2.19712 56.1768 10.5754 56.1768 20.8738C56.1768 24.4059 55.1854 27.8459 53.3102 30.8214C53.1636 31.0539 38.6878 54.0098 38.4352 54.4063C38.4329 54.4096 38.4308 54.4132 38.4286 54.4165C38.2249 54.7388 37.8778 54.9314 37.5001 54.9314C37.122 54.9314 36.7733 54.7379 36.5693 54.4171C36.4225 54.1844 21.9178 31.1831 21.6963 30.8295C21.6947 30.8269 21.6929 30.8242 21.6913 30.8214ZM12.9708 45.7221L23.2124 39.9525L21.4283 48.3467C21.3021 48.9402 21.6809 49.5235 22.2743 49.6498C22.3514 49.6662 22.4283 49.6741 22.5039 49.6741C23.0115 49.6741 23.4676 49.3201 23.5773 48.8037L25.3054 40.6735L34.7128 55.5928C35.1187 56.2313 35.715 56.6976 36.4011 56.9399V72.0213L20.5417 63.0862L22.6638 53.102C22.79 52.5084 22.4112 51.9251 21.8178 51.7989C21.2236 51.672 20.6408 52.0517 20.5146 52.645L18.3278 62.9334L3.20239 71.455L12.9708 45.7221ZM56.6722 62.9336L51.788 39.9524L62.0291 45.7221L71.7977 71.455L56.6722 62.9336Z" fill="#005BAB"/>
<path d="M49.585 20.8739C49.585 14.2103 44.1636 8.78894 37.5 8.78894C30.8364 8.78894 25.415 14.2103 25.415 20.8739C25.415 27.5375 30.8364 32.9589 37.5 32.9589C44.1636 32.9589 49.585 27.5375 49.585 20.8739ZM27.6123 20.8739C27.6123 15.4218 32.0479 10.9862 37.5 10.9862C42.9522 10.9862 47.3877 15.4218 47.3877 20.8739C47.3877 26.3261 42.9522 30.7616 37.5 30.7616C32.0479 30.7616 27.6123 26.3261 27.6123 20.8739Z" fill="#005BAB"/>
<path d="M45.1904 20.8739C45.1904 16.6335 41.7404 13.1835 37.5 13.1835C33.2596 13.1835 29.8096 16.6335 29.8096 20.8739C29.8096 25.1143 33.2596 28.5643 37.5 28.5643C41.7404 28.5643 45.1904 25.1143 45.1904 20.8739ZM32.0068 20.8739C32.0068 17.8449 34.471 15.3807 37.5 15.3807C40.529 15.3807 42.9932 17.8449 42.9932 20.8739C42.9932 23.9029 40.529 26.3671 37.5 26.3671C34.471 26.3671 32.0068 23.9029 32.0068 20.8739Z" fill="#005BAB"/>
</svg>
