<svg width="76" height="75" viewBox="0 0 76 75" fill="none" xmlns="http://www.w3.org/2000/svg">
<g clip-path="url(#clip0_175_276)">
<path d="M35.4452 22.271H31.5528V18.3786C31.5528 17.5696 30.8969 16.9139 30.0881 16.9139C29.2794 16.9139 28.6234 17.5697 28.6234 18.3786V22.271H24.7311C23.9222 22.271 23.2664 22.9268 23.2664 23.7357C23.2664 24.5446 23.9222 25.2004 24.7311 25.2004H28.6234V29.0928C28.6234 29.9018 29.2794 30.5575 30.0881 30.5575C30.8969 30.5575 31.5528 29.9017 31.5528 29.0928V25.2004H35.4452C36.2541 25.2004 36.9099 24.5446 36.9099 23.7357C36.9099 22.9268 36.2541 22.271 35.4452 22.271Z" fill="#005BAB"/>
<path d="M30.0879 10.8459C22.9805 10.8459 17.198 16.6284 17.198 23.7358C17.198 30.8432 22.9805 36.6257 30.0879 36.6257C37.1953 36.6257 42.9777 30.8432 42.9777 23.7358C42.9777 16.6284 37.1953 10.8459 30.0879 10.8459ZM30.0879 33.696C24.5957 33.696 20.1275 29.2278 20.1275 23.7357C20.1275 18.2435 24.5957 13.7753 30.0879 13.7753C35.58 13.7753 40.0482 18.2435 40.0482 23.7357C40.0482 29.2278 35.58 33.696 30.0879 33.696Z" fill="#005BAB"/>
<path d="M59.2469 13.4676L46.2107 0.431249C45.9359 0.156591 45.5633 0.00219727 45.1749 0.00219727H4.89423C2.47124 0.00219727 0.5 1.97358 0.5 4.39657V70.6036C0.5 73.0266 2.47124 74.9978 4.89423 74.9978H32.874C33.6829 74.9978 34.3387 74.3418 34.3387 73.5331C34.3387 72.7244 33.6828 72.0684 32.874 72.0684H4.89423C4.08652 72.0684 3.42954 71.4113 3.42954 70.6037V4.39657C3.42954 3.58886 4.08666 2.93188 4.89423 2.93188H43.71V11.5739C43.71 13.9968 45.6813 15.9681 48.1043 15.9681H56.7462V42.0406C56.7462 42.8495 57.4022 43.5053 58.2109 43.5053C59.0197 43.5053 59.6756 42.8494 59.6756 42.0406V14.5032C59.6759 14.1148 59.5215 13.7423 59.2469 13.4676ZM48.1044 13.0385C47.2967 13.0385 46.6397 12.3814 46.6397 11.5739V5.00331L54.6751 13.0385H48.1044Z" fill="#005BAB"/>
<path d="M48.8366 41.0153H23.3988C22.5899 41.0153 21.9341 41.6712 21.9341 42.48C21.9341 43.2887 22.59 43.9447 23.3988 43.9447H48.8366C49.6455 43.9447 50.3013 43.2888 50.3013 42.48C50.3015 41.6712 49.6455 41.0153 48.8366 41.0153Z" fill="#005BAB"/>
<path d="M16.112 41.0153H11.3392C10.5303 41.0153 9.87451 41.6712 9.87451 42.48C9.87451 43.2887 10.5305 43.9447 11.3392 43.9447H16.112C16.9208 43.9447 17.5766 43.2887 17.5766 42.48C17.5766 41.6712 16.9208 41.0153 16.112 41.0153Z" fill="#005BAB"/>
<path d="M37.9975 49.2178H23.3988C22.5899 49.2178 21.9341 49.8737 21.9341 50.6825C21.9341 51.4912 22.59 52.1472 23.3988 52.1472H37.9975C38.8064 52.1472 39.4622 51.4914 39.4622 50.6825C39.4622 49.8737 38.8064 49.2178 37.9975 49.2178Z" fill="#005BAB"/>
<path d="M16.112 49.2178H11.3392C10.5303 49.2178 9.87451 49.8737 9.87451 50.6825C9.87451 51.4912 10.5305 52.1472 11.3392 52.1472H16.112C16.9208 52.1472 17.5766 51.4912 17.5766 50.6825C17.5766 49.8737 16.9208 49.2178 16.112 49.2178Z" fill="#005BAB"/>
<path d="M24.4339 57.8496C24.1616 57.5771 23.785 57.4204 23.3984 57.4204C23.0132 57.4204 22.6367 57.577 22.3628 57.8496C22.0903 58.1221 21.9336 58.5 21.9336 58.8853C21.9336 59.2705 22.0902 59.6484 22.3628 59.9207C22.6353 60.1932 23.0132 60.3501 23.3984 60.3501C23.7852 60.3501 24.1616 60.1934 24.4339 59.9207C24.7079 59.6484 24.8633 59.2705 24.8633 58.8853C24.8633 58.5 24.7079 58.1221 24.4339 57.8496Z" fill="#005BAB"/>
<path d="M16.112 57.4204H11.3392C10.5303 57.4204 9.87451 58.0764 9.87451 58.8851C9.87451 59.694 10.5305 60.3498 11.3392 60.3498H16.112C16.9208 60.3498 17.5766 59.6938 17.5766 58.8851C17.5768 58.0764 16.9208 57.4204 16.112 57.4204Z" fill="#005BAB"/>
<path d="M66.4183 56.8342C65.9884 56.8342 65.5659 56.8662 65.1519 56.9244C66.0749 53.8286 65.3167 50.3344 62.8769 47.8942C61.1616 46.1791 58.8811 45.2344 56.4553 45.2344C54.0294 45.2344 51.7489 46.1791 50.0338 47.8942L38.4335 59.4943C36.7184 61.2096 35.7737 63.4901 35.7737 65.9159C35.7737 68.3418 36.7184 70.6223 38.4335 72.3375C40.2042 74.108 42.5292 74.9931 44.8551 74.9931C47.1804 74.9931 49.5064 74.1076 51.2767 72.3375L57.3458 66.2683C57.532 71.113 61.5291 74.9973 66.4184 74.9973C71.4262 74.9973 75.5 70.9234 75.5 65.9157C75.5 60.908 71.426 56.8342 66.4183 56.8342ZM49.205 70.266C46.8064 72.6648 42.9035 72.6648 40.505 70.266C39.3429 69.1041 38.7031 67.5593 38.7031 65.916C38.7031 64.2728 39.3429 62.7278 40.505 61.566L45.2694 56.8016L53.9694 65.5018L49.205 70.266ZM56.0406 63.4302L47.3406 54.7301L52.105 49.9658C53.2671 48.8038 54.8118 48.1639 56.455 48.1639C58.0983 48.1639 59.6433 48.8038 60.805 49.9658C63.2037 52.3643 63.2037 56.2673 60.805 58.6658L56.0406 63.4302ZM64.9536 71.8904C62.2665 71.2312 60.2663 68.8032 60.2663 65.9159C60.2663 63.0284 62.2664 60.6004 64.9536 59.9415V71.8904ZM67.883 71.8904V59.9414C70.5702 60.6004 72.5703 63.0284 72.5703 65.9157C72.5703 68.8031 70.5702 71.2312 67.883 71.8904Z" fill="#005BAB"/>
</g>
<defs>
<clipPath id="clip0_175_276">
<rect width="75" height="75" fill="white" transform="translate(0.5)"/>
</clipPath>
</defs>
</svg>
