<svg xmlns="http://www.w3.org/2000/svg" width="36.115" height="45.264" viewBox="0 0 36.115 45.264">
  <g id="microscope" transform="translate(-17 -8.028)">
    <path id="Path_146" data-name="Path 146" d="M53.174,8.317a2.156,2.156,0,0,0-2.945.789l-2.516,4.358-.527-.3a2.156,2.156,0,0,0-2.945.789l-5.585,9.673a2.156,2.156,0,0,0,.789,2.945l.527.3-1.963,3.4a2.156,2.156,0,0,0,.789,2.945l.575.332a2.156,2.156,0,0,0,2.945-.789l1.963-3.4.527.3a2.156,2.156,0,0,0,2.945-.789l.362-.626a4.659,4.659,0,1,1,4.584-7.94l.639-1.106a2.156,2.156,0,0,0-.789-2.945l-.527-.3,2.516-4.358a2.156,2.156,0,0,0-.789-2.945Z" transform="translate(-9.551)" fill="#6e6e6e"/>
    <path id="Path_147" data-name="Path 147" d="M60.128,35.987a3.046,3.046,0,0,1-3.547,1.766q-.081-.02-.16-.045a3.04,3.04,0,1,1,3.707-1.721Z" transform="translate(-17.187 -10.941)" fill="#6e6e6e"/>
    <path id="Path_148" data-name="Path 148" d="M68.091,34.188a4.643,4.643,0,0,1-.383,1.853,6.876,6.876,0,0,1,2.231,9.58,8.609,8.609,0,0,1,3.89,3.825,12.267,12.267,0,0,0-5.4-19.02l-.9,1.551a4.637,4.637,0,0,1,.557,2.211Z" transform="translate(-23.295 -10.325)" fill="#6e6e6e"/>
    <path id="Path_149" data-name="Path 149" d="M42.874,60a6.978,6.978,0,0,0-6.844,5.617l-.92,4.624H19.7a2.7,2.7,0,0,0-2.7,2.7v1.617a2.7,2.7,0,0,0,2.7,2.7H50.42a2.7,2.7,0,0,0,2.7-2.7V72.937a2.7,2.7,0,0,0-2.476-2.686l-.921-4.633A6.975,6.975,0,0,0,42.874,60Z" transform="translate(0 -23.957)" fill="#6e6e6e"/>
    <path id="Path_150" data-name="Path 150" d="M41.344,64.5a8.578,8.578,0,0,0-1.138,2.876l-.018.089H29.5V64.5Z" transform="translate(-5.762 -26.032)" fill="#6e6e6e"/>
  </g>
</svg>
