<svg xmlns="http://www.w3.org/2000/svg" width="47.136" height="39.441" viewBox="0 0 47.136 39.441">
  <g id="reaction_svg" transform="translate(0 0.003)">
    <g id="BACKGROUND_2" data-name="BACKGROUND 2" transform="translate(0 -0.003)">
      <path id="Path_13" data-name="Path 13" d="M31.534,1.239l-.6.391A6.235,6.235,0,0,0,29.678,9.59l-1.9,1.807-.749.7a9.768,9.768,0,0,0-5.258-2.279,5.568,5.568,0,0,0-.6-8.986A5.486,5.486,0,0,0,17.289.083a5.568,5.568,0,0,0-4.542,4.363A5.486,5.486,0,0,0,12.7,6.514a5.584,5.584,0,0,0,3.7,4.347h0a9.638,9.638,0,0,0-3.5,3l-.57-.326A4.461,4.461,0,0,0,10.549,8.5a4.363,4.363,0,0,0-2.93-.765A4.461,4.461,0,0,0,4.363,9.688,4.509,4.509,0,0,0,4.884,15.5a5.047,5.047,0,0,0,.554.44,4.493,4.493,0,0,0,5.7-.472l.651.374a9.621,9.621,0,0,0,0,7.31,8.14,8.14,0,0,0,.586,1.27,6.854,6.854,0,0,0,.554.847l-2.068,1.84-.961.912a6.219,6.219,0,0,0-9.654,6.74,6.137,6.137,0,0,0,1.628,2.67,6.219,6.219,0,0,0,9.768-7.635l.179-.179,2.833-2.67a9.556,9.556,0,0,0,4.672,2.1,3.972,3.972,0,0,0-1.53,3.826,3.712,3.712,0,0,0,.456,1.335,3.989,3.989,0,0,0,5.437,1.5l.407-.26A3.989,3.989,0,0,0,25.2,30.266a3.923,3.923,0,0,0-1.628-1.53,8.417,8.417,0,0,0,.83-.293,9.556,9.556,0,0,0,3.468-2.393L30.7,27.677l2.068,1.188A7.391,7.391,0,1,0,34.4,26.212l-.944-.537L29.532,23.4a9.638,9.638,0,0,0,.1-7.521,9.2,9.2,0,0,0-1.042-1.888L31.322,11.4a5.438,5.438,0,0,0,.651.407,6.219,6.219,0,1,0-.44-10.566Z" transform="translate(0 0.003)" fill="#00aeef"/>
    </g>
  </g>
</svg>
