<svg xmlns="http://www.w3.org/2000/svg" xmlns:xlink="http://www.w3.org/1999/xlink" width="1140" height="547" viewBox="0 0 1140 547">
  <defs>
    <clipPath id="clip-path">
      <rect id="Rectangle_26" data-name="Rectangle 26" width="1140" height="547" transform="translate(1451 392)" fill="#fff"/>
    </clipPath>
    <radialGradient id="radial-gradient" cx="0.535" cy="0.543" r="0.559" gradientTransform="matrix(-0.182, 0.971, -0.738, -0.24, 1.205, 4.647)" gradientUnits="objectBoundingBox">
      <stop offset="0" stop-color="#00aeef"/>
      <stop offset="0.07" stop-color="#00aeef" stop-opacity="0.859"/>
      <stop offset="0.2" stop-color="#00aeef" stop-opacity="0.659"/>
      <stop offset="0.33" stop-color="#00aeef" stop-opacity="0.431"/>
      <stop offset="0.46" stop-color="#00aeef" stop-opacity="0.231"/>
      <stop offset="0.58" stop-color="#00aeef" stop-opacity="0.149"/>
      <stop offset="0.71" stop-color="#00aeef" stop-opacity="0.09"/>
      <stop offset="0.84" stop-color="#00aeef" stop-opacity="0.051"/>
      <stop offset="0.96" stop-color="#00aeef" stop-opacity="0.012"/>
      <stop offset="1" stop-color="#00aeef" stop-opacity="0"/>
    </radialGradient>
  </defs>
  <g id="Mask_Group_1" data-name="Mask Group 1" transform="translate(-1451 -392)" clip-path="url(#clip-path)">
    <g id="Group_3" data-name="Group 3" transform="matrix(-0.788, -0.616, 0.616, -0.788, 3623.688, 648.429)">
      <path id="Path_145" data-name="Path 145" d="M416.06,158.73a9.67,9.67,0,0,0,7.35-15.58L446.84,123a5.85,5.85,0,0,0,6.32,1l13.95,27a5.551,5.551,0,0,0-1.13.75,6,6,0,1,0,2-1.15l-14-27.1a4.3,4.3,0,0,0,.56-.42,5.85,5.85,0,0,0,.64-8.25,5.92,5.92,0,0,0-2.8-1.81l3.43-17a5.86,5.86,0,0,0,5.77-2.46l57.8,33a6,6,0,0,0,10.79,5.26,5.642,5.642,0,0,0,.51-1.44l16,2.14a9.61,9.61,0,0,0,5.93,9.31l-10.58,29.56a6,6,0,1,0,4.43,6.3H641a5.86,5.86,0,1,0,5.16-6.3l-13.92-68.64a8.62,8.62,0,0,0,3.24-1.6,8.91,8.91,0,0,0,3.27-8.67L657.06,88a6,6,0,0,0,8.41,3.43l9.21,14.88a5.84,5.84,0,0,0,2.56,10.46l-3.32,30.68h-.53a9.64,9.64,0,0,0-6.84,2.82,9.54,9.54,0,0,0-2.56,4.49,9.68,9.68,0,1,0,10.92-7.17l3.33-30.72a5.85,5.85,0,0,0,5.32-3.56l28.65,10.17a5.77,5.77,0,0,0-.31,1.32,6,6,0,1,0,.71-2.24l-28.74-10.2q.07-.35.12-.69a5.85,5.85,0,0,0-8.46-5.86L666.32,90.9a6,6,0,1,0-8.15-8.71L642.29,70.82l51.52-45.37a6,6,0,1,0,1-9.44L668.32-19.87l.09-.08a5.86,5.86,0,0,0,.36-8.27,5.86,5.86,0,0,0-8.27-.36,5.86,5.86,0,0,0-1.35,6.79L608.37,7.45a5,5,0,0,0-.6-.79,5.85,5.85,0,1,0-4.35,9.8l1.8,23.21a6,6,0,0,0-3.1,1.5,5.653,5.653,0,0,0-.42.43L583.17,27.67a5.85,5.85,0,1,0-10.77-3.78l-44.77-1.37A8.879,8.879,0,0,0,525.49,17l24-23a10.059,10.059,0,0,0,2.23,1.57,9.61,9.61,0,0,0,7.38.58,9.56,9.56,0,0,0,5.63-4.8,9.67,9.67,0,0,0-4.21-13,9.69,9.69,0,0,0-13,4.21,9.419,9.419,0,0,0-.77,2.07,8.78,8.78,0,0,0-.25,1.76l-65.86-.49a6,6,0,0,0-3.26-4.89,6,6,0,0,0-4.583-.366,6,6,0,0,0-3.5,2.986,6,6,0,0,0-.366,4.583,6,6,0,0,0,2.986,3.5,6,6,0,0,0,2.48.64l.76,18.81a5.8,5.8,0,0,0-4,2.41L448.23-.13a5.86,5.86,0,0,0-2.61-7.76,5.83,5.83,0,0,0-5.24,0L425.33-26.85a5.83,5.83,0,0,0,1.76-3.29,5.85,5.85,0,0,0-1.015-4.364,5.85,5.85,0,0,0-3.805-2.366,5.84,5.84,0,0,0-4.376,1.034A5.84,5.84,0,0,0,415.55-32a5.1,5.1,0,0,0-.08,1.1l-33.61,3.71L381-48.79a10.82,10.82,0,0,0,1.25-.3,9.67,9.67,0,0,0,5.63-4.81,9.66,9.66,0,0,0,.59-7.38,9.61,9.61,0,0,0-4.81-5.63,9.61,9.61,0,0,0-7.38-.59,9.61,9.61,0,0,0-5.63,4.81,9.7,9.7,0,0,0-.78,2.06,9.5,9.5,0,0,0-.17,3.68l-13.38,2.6a6,6,0,0,0-3-3.72,6,6,0,0,0-4.583-.366,6,6,0,0,0-3.5,2.986,6.049,6.049,0,0,0-.61,2L300.4-55.29a6,6,0,0,0-2.4-4.58l11.5-18.79a9.67,9.67,0,0,0,10.61-.87,9.69,9.69,0,0,0,1.64-13.58,9.65,9.65,0,0,0-6.45-3.64,9.62,9.62,0,0,0-6.45,1.52l-41.94-57.38a6,6,0,0,0,.79-8.24,6,6,0,0,0-5.27-2.27l-6.06-30.07,20.83-8.15a5.82,5.82,0,0,0,1.06,1.64,5.85,5.85,0,0,0,4.062,1.889,5.85,5.85,0,0,0,4.208-1.539,5.85,5.85,0,0,0,1.889-4.062,5.85,5.85,0,0,0-1.539-4.208,5.85,5.85,0,0,0-4.062-1.889,5.85,5.85,0,0,0-4.208,1.539,5.85,5.85,0,0,0-1.73,5.68l-20.71,8.11-13-64.63a1.639,1.639,0,0,0,.5-.14,8.85,8.85,0,0,0,5.19-4.43,8.92,8.92,0,0,0-3.89-12,8.93,8.93,0,0,0-12,3.89,9.508,9.508,0,0,0-.72,1.9,8.93,8.93,0,0,0,.18,4.91,8.85,8.85,0,0,0,4.43,5.19,8.81,8.81,0,0,0,3.29.95l-1.95,66a5.84,5.84,0,0,0-3.63,1.53c-.14.13-.27.27-.4.41l-18.54-13.93a6,6,0,0,0-.65-7.25,6,6,0,0,0-4.168-1.947,6,6,0,0,0-4.322,1.577,6,6,0,0,0-1.942,4.17,6,6,0,0,0,1.582,4.32,6,6,0,0,0,8.48.36c.15-.14.29-.28.43-.43l18.53,13.93a5.86,5.86,0,0,0,.65,7.06,5.84,5.84,0,0,0,4.057,1.888,5.84,5.84,0,0,0,4.2-1.538,5.81,5.81,0,0,0,1.65-6l11.33-4.43,6,29.86a6,6,0,0,0-2.18,1.08,6,6,0,0,0-1.8,7.11L185.14-116a9.451,9.451,0,0,0-1.41-1.82,9.65,9.65,0,0,0-6.84-2.85,9.64,9.64,0,0,0-6.84,2.82,9.62,9.62,0,0,0-2.56,4.49,9.55,9.55,0,0,0-.29,2.34,9.69,9.69,0,0,0,9.65,9.7h.93l5.9,40.19a5.87,5.87,0,0,0-3.88,3.36L151.15-68a6.35,6.35,0,0,0,.31-1.32,6,6,0,0,0-1.283-4.42,6,6,0,0,0-4.037-2.21,6,6,0,0,0-6.62,5.31,6,6,0,0,0,1.276,4.423A6,6,0,0,0,144.83-64a6,6,0,0,0,5.91-3.07l28.75,10.2a6.508,6.508,0,0,0-.12.69,5.84,5.84,0,0,0,1.244,4.3,5.84,5.84,0,0,0,3.926,2.156h.2L185.08-16a6,6,0,0,0-5.41,5.32v.3L131-9.3a6,6,0,0,0-1.42-3.46,6,6,0,0,0-4.1-2.082,6,6,0,0,0-4.37,1.432,6,6,0,0,0-2.087,4.1A6,6,0,0,0,120.45-4.94a6,6,0,0,0,4.1,2.082,6,6,0,0,0,4.37-1.432,6,6,0,0,0,2.08-4l48.71-1.07A6,6,0,0,0,185-4a6,6,0,0,0,3.44-.64l20.2,31.94a4.943,4.943,0,0,0-.44.36,6,6,0,1,0,10,4.83l22.39-.35,4.82,14.12a5.59,5.59,0,0,0-1.45.91,5.84,5.84,0,0,0-.81,8L219.77,75.26l-.36-.38a9.68,9.68,0,0,0-16,4.69,9.78,9.78,0,0,0-.28,2.66A9.67,9.67,0,1,0,220.42,76l23.43-20.14a5.85,5.85,0,0,0,6.32,1l14,27a6.22,6.22,0,0,0-1.13.76A6,6,0,1,0,272.48,87L316,65.44a9.66,9.66,0,0,0,17.7-.33l80.95,29a4.59,4.59,0,0,0,8.16,3.8,4.54,4.54,0,0,0,.88-2.82l27.46-3.57a5.85,5.85,0,0,0,3.78,4.28l-3.44,17.11a5.84,5.84,0,0,0-5.29,9.38l-23.41,20.12c-.12-.13-.23-.26-.36-.38h0a9.68,9.68,0,0,0-13.67.42,9.49,9.49,0,0,0-2.33,4.26,9.68,9.68,0,0,0,9.67,12Zm266-1.62a8.68,8.68,0,1,1-8.66-8.69h.42l-.29,2.65h-.14a6,6,0,1,0,1.13.11l.29-2.65a8.69,8.69,0,0,1,7.24,8.58ZM237.23-260.38a7.85,7.85,0,0,1-3.94-4.61,7.91,7.91,0,0,1,.48-6.05,7.93,7.93,0,0,1,10.66-3.45,7.94,7.94,0,0,1,4.08,9,7.79,7.79,0,0,1-.63,1.68,7.87,7.87,0,0,1-4.61,3.93l-.39.11-.41-2a5.85,5.85,0,0,0,3.57-2.95,5.86,5.86,0,0,0-2.55-7.88,5.85,5.85,0,0,0-7.87,2.55,5.86,5.86,0,0,0,2.55,7.88,6,6,0,0,0,2,.59l-.06,2.08A7.71,7.71,0,0,1,237.23-260.38Zm4.26-1.24.41,2a7.375,7.375,0,0,1-.81.07l.06-2.08Zm2.19,72.31a5.86,5.86,0,0,0-.93-1.36,5.85,5.85,0,0,0-3.64-1.86l1.95-66a9.162,9.162,0,0,0,1-.1l13.07,64.8ZM219.09,87.87A8.58,8.58,0,0,1,213,90.6a8.67,8.67,0,1,1,5.68-15l.29.3-2,1.74-.1-.09a6,6,0,1,0,.75.85l2-1.74A8.67,8.67,0,0,1,219.09,87.87ZM421.3,63.24a5.85,5.85,0,1,0,4.45,6l2.07-.07a8.159,8.159,0,0,1-.22,1.7,7.68,7.68,0,0,1-.63,1.69,7.93,7.93,0,1,1-9.5-11.14,7.84,7.84,0,0,1,4.5-.11Zm4.42,5a5.85,5.85,0,0,0-3.15-4.5l-.32-.14.66-2a5.461,5.461,0,0,1,.6.27,7.85,7.85,0,0,1,3.94,4.61,8.709,8.709,0,0,1,.33,1.66Zm2.68-2A8.89,8.89,0,0,0,424,61c-.24-.12-.49-.23-.73-.33l5-14.83L510.2,25.39a9,9,0,0,0,1.85,3.28L480.82,59.76A9.65,9.65,0,0,0,465,64.59a9.371,9.371,0,0,0-.28,2.18l-35.88,1.32a9.31,9.31,0,0,0-.44-1.93ZM321.46,56.37a6,6,0,0,0-2.54,6.48l-2.43,1.21a8.65,8.65,0,0,1,3.7-10Zm9.09,6.57A6,6,0,0,0,328.83,57l1.65-2.09a8.67,8.67,0,0,1,2.57,8.93ZM328,56.38a5.529,5.529,0,0,0-1.16-.6,5.94,5.94,0,0,0-4.54.11l-1.27-2.35a8.65,8.65,0,0,1,6.76-.25,8.07,8.07,0,0,1,1.86,1Zm-7.44-3.72-15.67-29,19.41-7.6a6,6,0,0,0,8.35,2.57l8.44,12.29a5.85,5.85,0,0,0-.12,8.94l-10.7,13.62a10.26,10.26,0,0,0-2.12-1.14,9.64,9.64,0,0,0-7.55.32ZM209.47,26.73,189.26-5.22a6,6,0,0,0,2.35-4.13,6.1,6.1,0,0,0-.15-2.14l28-9.65A8.69,8.69,0,0,0,220.64-19a8.76,8.76,0,0,0,3.44,2.67l9.59,28.09-17.36,15.9a6,6,0,0,0-6.84-.93ZM182.82-110.18a7.357,7.357,0,0,0,.06-.81,6,6,0,0,0-.5-2.4l2.35-1.26a8.61,8.61,0,0,1,.82,3.66,9,9,0,0,1-.13,1.39Zm-.22,1,2.61.58a8.69,8.69,0,0,1-6.59,6.1l-.38-2.64a6,6,0,0,0,4.36-4.06ZM266.05-152,308-94.64a9.61,9.61,0,0,0-2.69,3.46l-44.62-13.57a6,6,0,0,0-3.13-6.61,6,6,0,0,0-4.583-.366,6,6,0,0,0-3.5,2.986,6,6,0,0,0-.65,3l-25.94,3.49a5.72,5.72,0,0,0-1.1-2.34,5,5,0,0,0-.54-.59l38.29-47a6,6,0,0,0,6.51.18Zm44.47,69.7-1.4,2.3a8.55,8.55,0,0,1-1.86-1.75,8.68,8.68,0,0,1-1.37-8.16l2.55.77a6,6,0,0,0,.92,5.74,5.85,5.85,0,0,0,1.16,1.08Zm-.36-9.35a6,6,0,0,0-1.3,1.57l-2.59-.78a8.6,8.6,0,0,1,2.31-3Zm-89.37-4.66a5.84,5.84,0,0,0,2.23-4.89L249-104.71a6,6,0,0,0,3.14,4l.36.17L230-33.12a10.419,10.419,0,0,0-1.26-.26,9,9,0,0,0-1.79,0l-8.48-61.83a5.81,5.81,0,0,0,2.32-1.12Zm7.83,64a7.64,7.64,0,0,1,1.06.21l-.65,2a5.89,5.89,0,0,0-1.67-.16l-.28-2.06a7.23,7.23,0,0,1,1.54-.06Zm-3.74,15.27-1-2.95a5.84,5.84,0,0,0,7.39.15,5.88,5.88,0,0,0,2.16-3.67l2.07.16a7.342,7.342,0,0,1-.16.84,7.84,7.84,0,0,1-2.79,4.3,7.94,7.94,0,0,1-7.67,1.1Zm8.63-7.46a5.88,5.88,0,0,0-1.24-3.56A5.8,5.8,0,0,0,230-29.89l.65-2a8,8,0,0,1,3.27,2.45,7.85,7.85,0,0,1,1.68,5Zm-7.14-5.65a5.7,5.7,0,0,0-2.32,1.1,5.83,5.83,0,0,0-2.06,6l-2,.68a8,8,0,0,1,2.74-8.35,8,8,0,0,1,3.32-1.52Zm-4.05,8.08a5.59,5.59,0,0,0,.74,1.23l-.48.16,1,3a8.16,8.16,0,0,1-2.2-1.92,8.511,8.511,0,0,1-1.06-1.84Zm3,6.21a8.9,8.9,0,0,0,7.88-1.57,8.82,8.82,0,0,0,3.34-5.84l28.06,2.15a6,6,0,0,0,1.22,3.51L234.48,11Zm41.18-1a5.619,5.619,0,0,0,1.29.9,5.84,5.84,0,0,0,4.464.359,5.84,5.84,0,0,0,3.406-2.909,5.621,5.621,0,0,0,.49-1.33l47.52,2.85a4.568,4.568,0,0,0,.2,1.2,4.59,4.59,0,0,0,4.1,3.16l1,20.18a6,6,0,0,0-5,7.67l-19.52,7.65L295.5,6.22a8.82,8.82,0,0,0,3.27-3.54,8.93,8.93,0,0,0-3.89-12,8.91,8.91,0,0,0-6.81-.54,8.85,8.85,0,0,0-5.19,4.43,9.6,9.6,0,0,0-.72,1.91,8.89,8.89,0,0,0,.18,4.9,8.83,8.83,0,0,0,4.43,5.19,8.6,8.6,0,0,0,2,.73l-3.12,17.76a5.82,5.82,0,0,0-6.35,5.41l-38,.61-6.5-19ZM287.22,5.68a7.87,7.87,0,0,1-3.93-4.61,7.88,7.88,0,0,1,.48-6,7.85,7.85,0,0,1,4.61-3.94,7.9,7.9,0,0,1,6.05.48,7.87,7.87,0,0,1,3.93,4.61,7.9,7.9,0,0,1,.16,4.36,8.261,8.261,0,0,1-.64,1.69A7.89,7.89,0,0,1,295,5.34l-1-1.82a5.85,5.85,0,0,0,2-2.23,5.85,5.85,0,0,0-2.55-7.87A5.86,5.86,0,0,0,285.61-4a5.85,5.85,0,0,0,2.56,7.87,5.56,5.56,0,0,0,1.15.44l-.36,2a7.78,7.78,0,0,1-1.74-.63Zm3.09-1.23A5.78,5.78,0,0,0,293.16,4l1,1.82a7.92,7.92,0,0,1-4.19.68Zm-.85,22.48a5.77,5.77,0,0,0-2.81-1.7l3.13-17.75a9,9,0,0,0,4.83-.79l8.9,16.46-13.12,5.14a5.57,5.57,0,0,0-.93-1.36Zm60.76,10.83A5.85,5.85,0,0,0,342,30.37l-8.44-12.3a5.86,5.86,0,0,0,1.55-1.92,6,6,0,0,0-2.62-8.08,5.88,5.88,0,0,0-2.52-.64l-1-20.2a4.261,4.261,0,0,0,.69-.15,4.59,4.59,0,0,0,3.15-4.84l23.67-5.07a5.86,5.86,0,0,0,2.94,3.5,5.87,5.87,0,0,0,3.75.53L383,51.91a4.56,4.56,0,0,0-2.1,1.71Zm33.71,13.88L364.09-19.07a5.85,5.85,0,0,0,3.16-2.81,5.87,5.87,0,0,0,.64-2.81l13-1.44L384,51.62Zm4.34,1.67,51.63-51,.4.24a5.739,5.739,0,0,0,1.35.48L427.48,45,389,54.57a4.32,4.32,0,0,0-.73-1.26ZM442.66,3.16A5.84,5.84,0,0,0,447.72.73l22.93,13.6a5.85,5.85,0,0,0,10.47,5.2,5.629,5.629,0,0,0,.49-1.37L509.82,22a9.08,9.08,0,0,0,.14,2.39l-81.33,20.3Zm81.42,13.76-1.5,1.44a5.54,5.54,0,0,0-1.2-.82,5.86,5.86,0,0,0-7.88,2.55,6.424,6.424,0,0,0-.49,1.37L511,21.18a7.641,7.641,0,0,1,.7-2,7.94,7.94,0,0,1,10.66-3.46,8.16,8.16,0,0,1,1.72,1.2Zm52,32.85a7.91,7.91,0,0,1,0,14.13l-2-1.44a5.85,5.85,0,0,0,1.09-10.85,6.19,6.19,0,0,0-1.15-.44l.35-2a7.74,7.74,0,0,1,1.76.6Zm34.12.25a6.516,6.516,0,0,0,.51-.54l29.93,21.43L620.2,89,598.43,78.73a5.84,5.84,0,0,0-2.74-7.19L604.3,51.3a6,6,0,0,0,5.95-1.3Zm-25.1,63.39A6,6,0,1,0,595.58,112l2-1.77a8.73,8.73,0,0,1,1.59,7.45,8.579,8.579,0,0,1-.31,1,8.67,8.67,0,1,1-8.15-11.75l-.14,2.66a6,6,0,0,0-5.42,3.82Zm9.78-2.2a6.151,6.151,0,0,0-2-1.28,6.379,6.379,0,0,0-1.32-.33l.14-2.67a8.579,8.579,0,0,1,2.13.51,8.67,8.67,0,0,1,3.07,2Zm-.72-4.7a9.731,9.731,0,0,0-2.44-.58L593,82.55a5.83,5.83,0,0,0,5-2.92l21.39,10-21.72,19.12a9.581,9.581,0,0,0-3.46-2.24ZM587.73,74a5.86,5.86,0,0,0,.29,5.82L529.31,125a6,6,0,0,0-1.71-1.31,5.92,5.92,0,0,0-3.35-.62L519,95.34a6,6,0,0,0,4.34-6.68,6.23,6.23,0,0,0-.54-1.73L565.13,61.8a8.75,8.75,0,0,0,3.35,3,8.9,8.9,0,0,0,7.49.28l11.94,8.69Zm-18.8-10.16A7.83,7.83,0,0,1,566,61.29l1.79-1.06A5.751,5.751,0,0,0,569.87,62a5.84,5.84,0,0,0,2.83.63l2.3,1.68a7.92,7.92,0,0,1-6.07-.43ZM573.05,51a5.84,5.84,0,0,0-6.36,6.06l-2-1.45a7.767,7.767,0,0,1,.77-2.39A7.89,7.89,0,0,1,573.41,49Zm-6.13,7.47a6.2,6.2,0,0,0,.35.9l-1.79,1.06a9.13,9.13,0,0,1-.48-1.16,7.9,7.9,0,0,1-.39-2.49Zm-2.87,1.11a9.53,9.53,0,0,0,.57,1.36L522.26,86.07A6,6,0,0,0,518,83.58l1-51.92a8.83,8.83,0,0,0,6.58-3.26l38,27.68a8.721,8.721,0,0,0,.47,3.5ZM521.16,30.29a8.06,8.06,0,0,1-2.1.37V28.58a5.81,5.81,0,0,0,4-2l1.68,1.23a7.93,7.93,0,0,1-3.58,2.48Zm-6-.48a8.671,8.671,0,0,1-1.64-1.13l1.47-1.47a5.757,5.757,0,0,0,1.12.75,5.63,5.63,0,0,0,2,.6v2.09a8.17,8.17,0,0,1-3-.84Zm-.88-3.3L512.76,28a8.06,8.06,0,0,1-1.59-2.82l2-.51a6.171,6.171,0,0,0,1.06,1.84Zm9.49-.74c.07-.12.14-.23.21-.36a6,6,0,0,0,.59-2l2.08.06a7.865,7.865,0,0,1-.2,1.18,7.6,7.6,0,0,1-.63,1.68c-.11.22-.24.44-.37.65Zm-10.84-3.32a6.2,6.2,0,0,0,.06,1.22l-2,.5a7.861,7.861,0,0,1-.11-2ZM472.14,58.53a8.69,8.69,0,0,1,8,1.93l-1.9,1.89a6,6,0,0,0-9.89,4.29l-2.66.1A8.69,8.69,0,0,1,472.14,58.53Zm-3.76,9.11a5.348,5.348,0,0,0,.14.8,6,6,0,0,0,1.79,2.94L468.7,73.5a8.59,8.59,0,0,1-2.7-4.38,7.391,7.391,0,0,1-.24-1.38ZM471.11,72a6,6,0,0,0,9-6.58,6.16,6.16,0,0,0-1.22-2.34l1.89-1.89A8.66,8.66,0,0,1,469.49,74.1Zm5.68,4.3a9.68,9.68,0,0,0,6.9-11.81,9.541,9.541,0,0,0-2.16-4l31.22-31.08a9.219,9.219,0,0,0,1.91,1.31,9.07,9.07,0,0,0,3.38.95l-1,51.91h-.51a6,6,0,0,0-5.1,5.51l-48.75.57v-.3a5.85,5.85,0,0,0-2-3.6l8.3-10.89a9.64,9.64,0,0,0,7.81,1.41ZM462.65,90.69l48.75-.57v.32a6,6,0,0,0,6.6,5.08l5.27,27.76a5.93,5.93,0,0,0-3.34,2.39l-57.8-33a5.791,5.791,0,0,0,.52-1.98Zm67.27,35.12,58.71-45.16a5.651,5.651,0,0,0,1.66,1.26,5.74,5.74,0,0,0,1.71.57l-1.23,23.4a9.69,9.69,0,0,0-9,6.22,10.732,10.732,0,0,0-.34,1.1,9.67,9.67,0,1,0,17-3.66l22-19.41,1.44.67a9.663,9.663,0,0,0-.38,1.15,9.9,9.9,0,0,0-.21,1.11,8.93,8.93,0,0,0,6,9.51l-9.74,34.54a6,6,0,0,0-6.5,3.16,6.247,6.247,0,0,0-.47,1.29L566,134.42a9.66,9.66,0,0,0-18.91-3.9,9.81,9.81,0,0,0-.19,1l-16-2.13a6.07,6.07,0,0,0-.98-3.58ZM629,99.88a5.83,5.83,0,0,0,1.77.06l.41,2a8.14,8.14,0,0,1-2.74-.1Zm-2.51-10.35A5.919,5.919,0,0,0,625,91.21l-1.88-.89a8,8,0,0,1,2.05-2.42,7.92,7.92,0,0,1,12.45,3.86l-2,.5a5.84,5.84,0,0,0-9.15-2.73Zm-1.87,2.58a5.84,5.84,0,0,0,3.42,7.5l-.56,2a7.9,7.9,0,0,1-5.24-8.42,7.559,7.559,0,0,1,.5-2ZM554,141.19l.9-2.51a6,6,0,0,0,7.23-3.87l2.65.43A8.62,8.62,0,0,1,554,141.19Zm8.37-7.35A6.006,6.006,0,1,0,550.5,132l-2.63-.36A8.665,8.665,0,1,1,565,134.26Zm-12.75,4.39a8.64,8.64,0,0,1-1.84-5.61l2.67.36a6,6,0,0,0,1.27,3.61,5.93,5.93,0,0,0,2.24,1.76l-.9,2.51a8.57,8.57,0,0,1-3.45-2.63Zm-3.05,38.43a5.94,5.94,0,0,0-1.25-3.2,6,6,0,0,0-2.24-1.76l10.58-29.56a9.63,9.63,0,0,0,12.11-6.74l44.54,7.14a6,6,0,0,0,9.61,5.25l22.76,25.41a5.84,5.84,0,0,0-1.56,3.5Zm98.72-5.07a5.83,5.83,0,0,0-1.86.94l-22.76-25.41a5.8,5.8,0,0,0,1-1.39,6,6,0,0,0-2.62-8.08c-.2-.1-.41-.19-.62-.27l9.75-34.54a9.11,9.11,0,0,0,3.21.12ZM638,95.09a6.659,6.659,0,0,1-.19,1,7.78,7.78,0,0,1-2.79,4.29,8,8,0,0,1-2.83,1.42l-.41-2a6,6,0,0,0,2-1,5.83,5.83,0,0,0,2.17-5.51l2-.5a8.09,8.09,0,0,1,.05,2.3ZM657.59,83a6,6,0,0,0-.81,2.42,6.171,6.171,0,0,0,0,1.61l-18.21,4.49a8.9,8.9,0,0,0-16.35-1.62l-1-.49,20.3-17.91ZM611.34,48.67a6,6,0,0,0,.77-4l41-10.22v.12a8.93,8.93,0,1,0,12.54-10.7,8.8,8.8,0,0,0-3.1-.92l.26-5.2L692,21a6,6,0,0,0,1.17,3.74L641.46,70.23Zm45.08-19.54a5.78,5.78,0,0,0-.56,3.58l-2,.5a7.9,7.9,0,0,1,5.35-9,7.81,7.81,0,0,1,2.34-.39l-.11,2.08a5.84,5.84,0,0,0-5.02,3.23Zm-.32,4.55a5.85,5.85,0,1,0,8.19-7.11,6.05,6.05,0,0,0-1.87-.58l.11-2.07a7.89,7.89,0,0,1,6.63,5.42,7.811,7.811,0,0,1,.16,4.36,8.257,8.257,0,0,1-.64,1.69,7.92,7.92,0,0,1-14.59-1.16h0ZM694,16.61l-.1.08A6,6,0,0,0,692.08,20l-29.19-3.24,1.77-35.14a5.81,5.81,0,0,0,2.86-.86ZM608.84,8.33l50.82-29.25a5.59,5.59,0,0,0,.48.61,5.78,5.78,0,0,0,3.52,1.84l-1.77,35.08-52.58-5.85a5.88,5.88,0,0,0-.47-2.43Zm-4.43,8.06a5.83,5.83,0,0,0,3-1.46,5.93,5.93,0,0,0,1.78-3.17l52.64,5.85-.26,5.25A8.92,8.92,0,0,0,653,29.63a8.79,8.79,0,0,0-.1,3.82l-41,10.22a6,6,0,0,0-5.65-4.07Zm-3.31,26a6,6,0,0,0,2.28,8.5l-8.61,20.25a5.86,5.86,0,0,0-6.29,1.77L577,64.55a8.9,8.9,0,0,0-2.41-16.4l3.12-17.76a5.81,5.81,0,0,0,4.47-1.51,5.285,5.285,0,0,0,.41-.41Zm-28.73-17.5a5.82,5.82,0,0,0,4.34,5.33L573.58,48a8.9,8.9,0,0,0-9,4.8,8.424,8.424,0,0,0-.72,1.9q0,.15,0,.3L526.21,27.59a7.515,7.515,0,0,0,.45-.78,9,9,0,0,0,.94-3.29Zm-45.74-2.4-2.08-.06a5.791,5.791,0,0,0-1.28-3.35l1.5-1.44a8,8,0,0,1,1.86,4.85Zm21.79-39.57a8.68,8.68,0,0,1,11.67-3.78A8.69,8.69,0,0,1,564.56-11a8,8,0,0,1-.69,1.83,8.55,8.55,0,0,1-5,4.31,8.59,8.59,0,0,1-6.61-.52,8.54,8.54,0,0,1-2-1.38l1.93-1.85a5.667,5.667,0,0,0,1.24.85,6,6,0,0,0,4.583.366,6,6,0,0,0,3.5-2.986,6,6,0,0,0,.366-4.583,6,6,0,0,0-2.986-3.5,6,6,0,0,0-4.583-.366,6,6,0,0,0-3.5,2.986,6,6,0,0,0-.63,2.19H547.5A8.8,8.8,0,0,1,548.42-17.08Zm3.06,7.72L549.55-7.5a8.779,8.779,0,0,1-1.65-3,8.74,8.74,0,0,1-.41-2.24h2.68a6,6,0,0,0,1.31,3.38ZM475.41-7.78A6,6,0,0,0,480-11a6,6,0,0,0,.63-2.19l65.85.49a9.31,9.31,0,0,0,.46,2.55,9.539,9.539,0,0,0,1.88,3.35l-24,23a8.9,8.9,0,0,0-14,2.46,9.237,9.237,0,0,0-.71,1.89,2.49,2.49,0,0,1-.09.46L481.8,17.13a5.84,5.84,0,0,0-3.18-5.5,5.64,5.64,0,0,0-2.4-.63ZM415.58-30a5.86,5.86,0,0,0,4.78,4.64,5.84,5.84,0,0,0,4.19-.91l15,18.83a6,6,0,0,0-1.76,2.06,6,6,0,0,0-.6,2l-27-1.24A9.68,9.68,0,0,0,402.05-14a9.59,9.59,0,0,0-7.21,1.68,9.64,9.64,0,0,0-3.75,5.5c-.06.25-.12.52-.16.78a9.69,9.69,0,0,0,8,11.13,9.63,9.63,0,0,0,7.21-1.68A9.61,9.61,0,0,0,410-2.93c0-.21.05-.42.07-.63l27,1.24a5.81,5.81,0,0,0,2,4l-51.5,50.91a4.54,4.54,0,0,0-2.57-1l-3.1-77.82ZM401.45-10.43a6,6,0,0,0-6.9,4.94,6,6,0,0,0,1.037,4.48,6,6,0,0,0,3.9,2.43A6,6,0,0,0,403.973.38,6,6,0,0,0,406.4-3.53v-.2l2.67.12a1.543,1.543,0,0,1-.06.52,8.54,8.54,0,0,1-3.51,5.63,8.6,8.6,0,0,1-6.46,1.51A8.68,8.68,0,0,1,393.4.531a8.68,8.68,0,0,1-1.5-6.481,8.65,8.65,0,0,1,3.5-5.64,8.61,8.61,0,0,1,6.47-1.5,8.68,8.68,0,0,1,7.25,8.45l-2.66-.12a6,6,0,0,0-5.01-5.67Zm-20.59-16.7-13.09,1.45a5.84,5.84,0,0,0-2.55-3.77l10.56-19.82a9.69,9.69,0,0,0,4.23.61Zm-4.33-25.82h.06l-1.26,2.35h0a8.65,8.65,0,0,1-4.31-5c-.05-.18-.1-.36-.14-.54l2.62-.51a6,6,0,0,0,3.03,3.7Zm1,.4a6.23,6.23,0,0,0,2.34.23l.11,2.66a8.45,8.45,0,0,1-3.72-.51Zm-6-9.69a8.65,8.65,0,0,1,5-4.31,8.66,8.66,0,0,1,6.62.53,8.6,8.6,0,0,1,4.3,5,8.61,8.61,0,0,1,.17,4.77,8.629,8.629,0,0,1-.69,1.85,8.6,8.6,0,0,1-5.05,4.3,7,7,0,0,1-1,.25l-.11-2.71a6,6,0,0,0,3.76-3.06A6,6,0,0,0,382-63.65a6,6,0,0,0-4.6-.358A6,6,0,0,0,373.91-61a6,6,0,0,0-.62,3.38l-2.62.51a8.61,8.61,0,0,1,.87-5.13ZM369.9-56c.05.22.09.44.16.66a9.65,9.65,0,0,0,4.8,5.63L364.33-29.92a5.85,5.85,0,0,0-4-.21l-7-17.24A6,6,0,0,0,355.9-50a6,6,0,0,0,.62-3.38Zm-25.35,3.5a6,6,0,0,0,3.27,5.1,6,6,0,0,0,4.52.38l7,17.24a5.82,5.82,0,0,0-2.55,2.55,5.86,5.86,0,0,0-.59,3.39l-23.67,5.07a4.59,4.59,0,0,0-5.77-2.92,4.59,4.59,0,0,0-3.1,3.6l-47.44-2.86a5.84,5.84,0,0,0-2.06-4.79L291.32-49.9a3.367,3.367,0,0,0,.32.19,6,6,0,0,0,4.583.366,6,6,0,0,0,3.5-2.986,5.79,5.79,0,0,0,.6-2ZM297.1-60.4a6,6,0,0,0-8.05,2.64,6,6,0,0,0,1.48,7.32L273.38-26.29c-.1-.05-.2-.12-.31-.17a5.78,5.78,0,0,0-3.85-.51l-5.5-17.6c.2-.08.4-.15.59-.24a9.57,9.57,0,0,0,5.09-5.38,9.69,9.69,0,0,0-5.6-12.48,9.68,9.68,0,0,0-12.48,5.59A9.483,9.483,0,0,0,251-56a9.54,9.54,0,0,0,.56,6.29,9.63,9.63,0,0,0,5.38,5.09,9.61,9.61,0,0,0,5.85.32l5.51,17.58a5.89,5.89,0,0,0-3.07,2.78,5.869,5.869,0,0,0-.56,1.72l-28.06-2.15a8.8,8.8,0,0,0-1.9-5.68A8.83,8.83,0,0,0,231-32.81l22.45-67.36a6,6,0,0,0,6.77-3.11c.08-.16.16-.34.23-.51l44.53,13.54a6.284,6.284,0,0,0-.22.74,9.4,9.4,0,0,0-.22,1.2,9.53,9.53,0,0,0,2,7.13,9.5,9.5,0,0,0,2.11,2ZM266-51.49a6,6,0,0,0-.128-4.6,6,6,0,0,0-3.352-3.157,6,6,0,0,0-4.6.132,6,6,0,0,0-3.153,3.348,6,6,0,0,0,.111,4.6A6,6,0,0,0,258.22-48a5.94,5.94,0,0,0,3.45.25l.79,2.54a8.54,8.54,0,0,1-5.19-.3,8.58,8.58,0,0,1-4.83-4.56,8.61,8.61,0,0,1-.19-6.63,8.69,8.69,0,0,1,11.19-5,8.69,8.69,0,0,1,5,11.19,8.58,8.58,0,0,1-4.56,4.83l-.48.19-.8-2.55A6,6,0,0,0,266-51.49Zm49.16-44.26a8.61,8.61,0,0,1,5.79,3.26A8.67,8.67,0,0,1,322.5-85a8.61,8.61,0,0,1-3.06,4.71,8.7,8.7,0,0,1-9.47.81l1.4-2.29a6,6,0,0,0,6.42-.62,6,6,0,0,0,1-8.43A6,6,0,0,0,311-92.27l-1.57-2.16a8.58,8.58,0,0,1,5.7-1.32Zm-57.24-58.13c.1.15.2.3.31.44a5.5,5.5,0,0,0,.56.62l-38.29,47a5.86,5.86,0,0,0-6.9.23,5.83,5.83,0,0,0-1.59,1.93l-25.58-5.75a9.658,9.658,0,0,0,.15-1.62,9.75,9.75,0,0,0-.93-4.14Zm-81,51.55a8.68,8.68,0,0,1-6.16-2.525A8.68,8.68,0,0,1,168.2-111a8.59,8.59,0,0,1,2.55-6.13,8.63,8.63,0,0,1,6.14-2.53,8.68,8.68,0,0,1,7.37,4.15l-2.35,1.26a6,6,0,0,0-5-2.74,6,6,0,0,0-6,6,6,6,0,0,0,6,6h.39l.39,2.65a6.787,6.787,0,0,1-.83.01Zm8.88,52.61A5.85,5.85,0,0,0,191-54.9a5.85,5.85,0,0,0-5.17-6.46,6.44,6.44,0,0,0-1.16,0l-5.9-40.15a9.67,9.67,0,0,0,4.93-2.63,9.62,9.62,0,0,0,2.48-4.25l25.41,5.72a5.85,5.85,0,0,0,1,5.35,5.87,5.87,0,0,0,4.91,2.23L226-33.28a8.9,8.9,0,0,0-3.8,1.74A8.92,8.92,0,0,0,219-26.7a9,9,0,0,0,.08,4.61l-28,9.66A6,6,0,0,0,186.3-16h-.22Zm32.47,81.17A6,6,0,0,0,217,28.38l17-15.61,6.26,18.33Zm32.83,25c.2-.13.38-.27.57-.42a5.85,5.85,0,0,0-5.22-10.12l-4.72-13.82,37.67-.6a5.78,5.78,0,0,0,1.5,3.36,5.85,5.85,0,0,0,9.92-5.62L304,24l15.73,29.1a9.62,9.62,0,0,0-4,4.81,10.234,10.234,0,0,0-.35,1.11,9.55,9.55,0,0,0,.24,5.45L272,86.14a5.889,5.889,0,0,0-.57-.8,6,6,0,0,0-6.42-1.8ZM328.29,69.3A8.65,8.65,0,0,1,316.85,65l2.39-1.19a6,6,0,0,0,11,.08l2.52.9A8.62,8.62,0,0,1,328.29,69.3Zm87.09,23.12a5,5,0,0,0-.43.73L334,64.17a9.67,9.67,0,0,0-2.91-10.06l10.73-13.65.36.21a5.86,5.86,0,0,0,7.57-2l30.66,15.86a4.59,4.59,0,1,0,8.82,1l37.86-9.44-4.8,14.22A8.93,8.93,0,0,0,412,64.86a9.621,9.621,0,0,0-.71,1.89,8.92,8.92,0,1,0,17.58,2.34l35.89-1.32a8.746,8.746,0,0,0,.26,1.6,9.59,9.59,0,0,0,3.11,4.93l-8.31,10.91a5.85,5.85,0,0,0-8.81,5.3l-27.45,3.57a4.57,4.57,0,0,0-8.14-1.66Zm-5.56,63a8.673,8.673,0,0,1,11.89-12.63h0l.29.3-2,1.74-.09-.1a6,6,0,1,0,.75.86l2-1.74a8.67,8.67,0,0,1-12.83,11.57Z" transform="translate(543 -753)" fill="url(#radial-gradient)"/>
    </g>
  </g>
</svg>
