<svg xmlns="http://www.w3.org/2000/svg" width="35.543" height="42.516" viewBox="0 0 35.543 42.516">
  <path id="doctor" d="M59.28,22.735l0,.012c-2.651.139-4-5.6-.771-4.4a15.59,15.59,0,0,1,1.751-4.935q5.659,6.99,10.7,7.193a17.939,17.939,0,0,0,.238-2.258c3.225-1.2,1.88,4.537-.771,4.4l0-.012c-2.283,6.668-8.855,6.666-11.139,0M64.85,48.611c-5.93,0-11.019-1.446-12.108-3.441l.624-7.42a.708.708,0,0,0-1.412-.116l-.646,7.687h.067a5.5,5.5,0,0,1-4.3-2.164c.721-3.858,1.333-8.261,4.017-10.81,1.509-1.433,3.952-2.127,6.248-2.665v5.065a3.349,3.349,0,0,0-2.148.977h0l0,0a3.345,3.345,0,0,0-.984,2.368v2.3a.708.708,0,1,0,1.417,0V38.1a1.93,1.93,0,0,1,.566-1.369l0,0a1.931,1.931,0,0,1,1.369-.566h.978a1.931,1.931,0,0,1,1.369.566v0a1.932,1.932,0,0,1,.569,1.369V40.34a.709.709,0,1,0,1.417,0V38.1a3.346,3.346,0,0,0-.984-2.371h0a3.35,3.35,0,0,0-2.15-.978V29.36c.38-.087.749-.173,1.1-.26L64.85,43.151ZM69.839,29.1c.352.088.721.173,1.1.26v5.806a1.655,1.655,0,0,0-.453.321l0,0a1.64,1.64,0,0,0,0,2.323l0,0a1.64,1.64,0,0,0,2.323,0l0,0a1.643,1.643,0,0,0,0-2.326h0a1.657,1.657,0,0,0-.453-.321V29.683c2.3.538,4.737,1.232,6.248,2.665,2.683,2.548,3.3,6.951,4.017,10.81a5.5,5.5,0,0,1-4.227,2.163l-.646-7.687a.708.708,0,0,0-1.411.116l.624,7.421h0c-1,1.834-5.383,3.2-10.691,3.413V42.907l-1.3-3.669Zm1.895-1.018c3.182-1.5,4.967-3.976,4.512-7.456-.684-5.917-4.965-14.537-11.4-14.531s-10.712,8.614-11.4,14.531c-.458,3.5,1.413,5.936,4.648,7.424l.657-.154v.009q.381-.088.762-.182l.405-.1.078-.1a1.28,1.28,0,0,0,.137-.536,6.206,6.206,0,0,0,9.418,0,1.266,1.266,0,0,0,.137.535l.079.1.407.1q.378.094.758.181V27.9Z" transform="translate(-47.078 -6.095)" fill="#6e6e6e" fill-rule="evenodd"/>
</svg>
