<svg xmlns="http://www.w3.org/2000/svg" width="43.877" height="36.505" viewBox="0 0 43.877 36.505">
  <g id="high-quality" transform="translate(-0.162 -5.4)">
    <path id="Path_151" data-name="Path 151" d="M13.445,40.076a6.271,6.271,0,0,0-.893-.55,5.373,5.373,0,0,0-.137-1.786,7.481,7.481,0,0,0-1.58-2.885A2.751,2.751,0,0,0,9.942,37.4c-.481-.481-.962-.962-1.374-1.442a3.527,3.527,0,0,0,.412-1.717,6.244,6.244,0,0,0-.618-3.091,2.7,2.7,0,0,0-1.58,2.267c-.343-.55-.618-1.168-.893-1.717a4.077,4.077,0,0,0,.962-1.58,5.84,5.84,0,0,0,.206-3.091,2.85,2.85,0,0,0-2.2,1.855,10.277,10.277,0,0,1-.412-1.992,3.572,3.572,0,0,0,1.374-1.305,6.089,6.089,0,0,0,1.03-2.954A2.807,2.807,0,0,0,4.172,24c0-.687.069-1.442.137-2.129A4.856,4.856,0,0,0,6.1,20.98a6.3,6.3,0,0,0,1.786-2.542,2.846,2.846,0,0,0-3.022.687c.206-.687.412-1.442.687-2.129a4,4,0,0,0,1.992-.412,6.152,6.152,0,0,0,2.4-2.061,2.779,2.779,0,0,0-3.16-.069,18.892,18.892,0,0,1,1.305-1.923,3.686,3.686,0,0,0,2.129.137A7.039,7.039,0,0,0,13.239,11.3a2.857,2.857,0,0,0-3.16-.893A16.453,16.453,0,0,1,13.308,8a.7.7,0,0,0,.275-.962.775.775,0,0,0-1.03-.275,19.369,19.369,0,0,0-3.5,2.61,3.837,3.837,0,0,0,0-3.572A5.547,5.547,0,0,0,6.714,9.166a2.8,2.8,0,0,0,.343,2.267,19.4,19.4,0,0,0-1.442,2.129A3.806,3.806,0,0,0,4.584,10.2,5.9,5.9,0,0,0,3.348,14.18a2.932,2.932,0,0,0,.962,2.061,16.59,16.59,0,0,0-.824,2.4,3.889,3.889,0,0,0-1.923-2.954,6.124,6.124,0,0,0-.137,4.121A3.133,3.133,0,0,0,2.936,21.53,14.931,14.931,0,0,0,2.8,24a3.573,3.573,0,0,0-2.61-2.2,6.063,6.063,0,0,0,.962,3.984A3,3,0,0,0,3,27.025a23.565,23.565,0,0,0,.412,2.335A3.576,3.576,0,0,0,.394,27.987a5.548,5.548,0,0,0,1.992,3.572,2.63,2.63,0,0,0,1.992.687,18.9,18.9,0,0,0,.962,2.061,4.2,4.2,0,0,0-3.228-.343A6.2,6.2,0,0,0,5,36.985a3.15,3.15,0,0,0,2.061.206,18.01,18.01,0,0,0,1.511,1.717,3.311,3.311,0,0,0-2.954.412,6.786,6.786,0,0,0,3.778,2.2,3.161,3.161,0,0,0,1.992-.275c.275.206.618.412.893.618a1.051,1.051,0,0,0,1.511-.412,1,1,0,0,0-.343-1.374Z" transform="translate(0 -0.125)" fill="#6e6e6e"/>
    <path id="Path_152" data-name="Path 152" d="M54.373,29.235a13.882,13.882,0,0,0,.412-2.335,3.193,3.193,0,0,0,1.855-1.236,6.063,6.063,0,0,0,.962-3.984,3.728,3.728,0,0,0-2.61,2.2c0-.824-.069-1.649-.137-2.473a3.154,3.154,0,0,0,1.511-1.717,5.735,5.735,0,0,0-.137-4.121A3.889,3.889,0,0,0,54.3,18.52a14.172,14.172,0,0,0-.824-2.4,2.932,2.932,0,0,0,.962-2.061,5.9,5.9,0,0,0-1.236-3.984,3.686,3.686,0,0,0-1.03,3.366c-.55-.756-1.03-1.442-1.58-2.129a2.752,2.752,0,0,0,.343-2.267A6.552,6.552,0,0,0,48.466,5.4a3.828,3.828,0,0,0,0,3.572,19.37,19.37,0,0,0-3.5-2.61.775.775,0,0,0-1.03.275.7.7,0,0,0,.275.962A18.783,18.783,0,0,1,47.436,10a2.857,2.857,0,0,0-3.16.893A7.039,7.039,0,0,0,47.3,12.269a3.686,3.686,0,0,0,2.129-.137,15.853,15.853,0,0,1,1.305,1.923,2.779,2.779,0,0,0-3.16.069,6.78,6.78,0,0,0,2.4,2.061,3.6,3.6,0,0,0,1.992.412,19.312,19.312,0,0,1,.687,2.129,2.846,2.846,0,0,0-3.022-.687A6.3,6.3,0,0,0,51.42,20.58a3.992,3.992,0,0,0,1.786.893c.069.687.137,1.442.137,2.129a2.807,2.807,0,0,0-2.679-1.374,6.885,6.885,0,0,0,1.03,2.954,3.572,3.572,0,0,0,1.374,1.305c-.137.687-.275,1.305-.412,1.992a2.642,2.642,0,0,0-2.2-1.855,6.564,6.564,0,0,0,.206,3.091,3.4,3.4,0,0,0,.962,1.58,13.5,13.5,0,0,1-.893,1.717,2.7,2.7,0,0,0-1.58-2.267,6.244,6.244,0,0,0-.618,3.091,3.527,3.527,0,0,0,.412,1.717c-.412.481-.893.962-1.374,1.442a2.6,2.6,0,0,0-.893-2.542,7.481,7.481,0,0,0-1.58,2.885,5.373,5.373,0,0,0-.137,1.786,3.9,3.9,0,0,1-.893.55,1.091,1.091,0,0,0-.412,1.374,1.051,1.051,0,0,0,1.511.412,10.047,10.047,0,0,0,.893-.618,3.161,3.161,0,0,0,1.992.275,6.786,6.786,0,0,0,3.778-2.2,3.311,3.311,0,0,0-2.954-.412,18.011,18.011,0,0,0,1.511-1.717,3.666,3.666,0,0,0,2.061-.206,5.917,5.917,0,0,0,2.885-3.022,3.418,3.418,0,0,0-3.091.481c.343-.687.687-1.374.962-2.061A3.189,3.189,0,0,0,55.2,31.3a6.066,6.066,0,0,0,1.992-3.572,4.435,4.435,0,0,0-2.816,1.511Z" transform="translate(-13.59)" fill="#6e6e6e"/>
    <path id="Path_153" data-name="Path 153" d="M34.394,38.091l-1.442-8.311L39,23.872a.7.7,0,0,0,.206-.687.666.666,0,0,0-.55-.481l-8.38-1.236-3.709-7.556a.789.789,0,0,0-.618-.412.66.66,0,0,0-.618.412l-3.709,7.556L13.238,22.7a.666.666,0,0,0-.55.481.622.622,0,0,0,.206.687l6.045,5.907L17.5,38.091a.653.653,0,0,0,.275.687.737.737,0,0,0,.756.069l7.419-3.984,7.487,3.915a.515.515,0,0,0,.343.069.976.976,0,0,0,.412-.137.634.634,0,0,0,.206-.618Z" transform="translate(-3.914 -2.536)" fill="#6e6e6e"/>
  </g>
</svg>
