<svg width="24" height="24" viewBox="0 0 24 24" fill="none" xmlns="http://www.w3.org/2000/svg">
<g clip-path="url(#clip0_413_2)">
<path d="M13.1759 7.40491C12.9171 7.40491 12.7073 7.1951 12.7073 6.93625V6.41641C12.7073 6.15757 12.9171 5.94775 13.1759 5.94775C13.4348 5.94775 13.6446 6.15757 13.6446 6.41641V6.93625C13.6445 7.1951 13.4347 7.40491 13.1759 7.40491Z" fill="white"/>
<path d="M13.1759 9.68355C12.9171 9.68355 12.7073 9.47374 12.7073 9.21489V8.6951C12.7073 8.43625 12.9171 8.22644 13.1759 8.22644C13.4348 8.22644 13.6446 8.43625 13.6446 8.6951V9.21489C13.6445 9.47374 13.4347 9.68355 13.1759 9.68355Z" fill="white"/>
<path d="M14.5754 8.28436H14.0556C13.7967 8.28436 13.5869 8.07455 13.5869 7.8157C13.5869 7.55686 13.7967 7.34705 14.0556 7.34705H14.5754C14.8343 7.34705 15.0441 7.55686 15.0441 7.8157C15.0441 8.07455 14.8343 8.28436 14.5754 8.28436Z" fill="white"/>
<path d="M12.2966 8.28436H11.7768C11.5179 8.28436 11.3081 8.07455 11.3081 7.8157C11.3081 7.55686 11.5179 7.34705 11.7768 7.34705H12.2966C12.5554 7.34705 12.7653 7.55686 12.7653 7.8157C12.7653 8.07455 12.5554 8.28436 12.2966 8.28436Z" fill="white"/>
<path d="M23.043 10.9782L21.039 7.58184C20.9869 7.4933 20.9153 7.44169 20.9153 7.44164C20.9125 7.43958 20.8454 7.39158 20.8048 7.37972L12.9582 4.22442L10.8174 3.33656L9.90264 1.2638C9.82768 1.09397 9.65954 0.984375 9.47387 0.984375C9.2882 0.984375 9.12006 1.09397 9.0451 1.2638L8.13043 3.33656L5.98857 4.22484C5.78917 4.30758 5.66884 4.51781 5.70624 4.73784C5.73376 4.8998 5.84959 5.03302 6.00132 5.09592L7.42248 5.68533C7.42248 5.68533 3.19346 7.38038 3.19318 7.38047C3.19318 7.38047 3.13675 7.40747 3.13646 7.40766C3.06156 7.44984 3.00189 7.51064 2.96101 7.58166L0.95687 10.9782C0.861479 11.1398 0.86926 11.3482 0.992026 11.5066C1.03651 11.564 1.09576 11.6084 1.16092 11.6404L2.89839 12.4965V19.7408C2.89839 19.9269 3.00845 20.0954 3.17889 20.1701L11.8118 23.955C11.8118 23.955 11.8118 23.955 11.8118 23.955C11.9295 24.0144 12.0686 24.0149 12.1864 23.9558C12.1875 23.9553 12.188 23.955 12.1881 23.955L20.8209 20.17C20.9913 20.0953 21.1014 19.9269 21.1014 19.7408V12.4966L22.8389 11.6405C22.904 11.6084 22.9633 11.5641 23.0078 11.5067C23.1307 11.3482 23.1384 11.1399 23.043 10.9782ZM12 11.0889L4.57839 7.83506L8.29257 6.34636L9.04515 8.05176C9.1201 8.22159 9.28824 8.33119 9.47392 8.33119C9.65959 8.33119 9.82773 8.22159 9.90268 8.05176L10.8174 5.97895L12.7824 5.16394L19.4232 7.83431L12 11.0889ZM8.66289 4.13044C8.77421 4.08427 8.86342 3.99698 8.91212 3.88673L9.47392 2.61375L10.0357 3.88673C10.0844 3.99698 10.1736 4.08422 10.2849 4.13044L11.5565 4.65778L10.2849 5.18517C10.1737 5.23134 10.0844 5.31862 10.0357 5.42883L9.47392 6.70186L8.91212 5.42883C8.86346 5.31862 8.77421 5.23134 8.66289 5.18517L7.39135 4.65778L8.66289 4.13044ZM3.55951 8.41176L11.3537 11.829L9.78873 14.8467L2.02089 11.0193L3.55951 8.41176ZM20.1642 19.4347L12.4686 22.8087V19.6818C12.4686 19.423 12.2588 19.2132 12 19.2132C11.7411 19.2132 11.5313 19.423 11.5313 19.6818V22.8087L3.8357 19.4347V12.9584L9.78624 15.8903C9.85281 15.9232 9.92345 15.9387 9.99306 15.9387C10.1627 15.9387 10.3262 15.8462 10.4094 15.6857L11.5314 13.5223V15.4447C11.5314 15.7035 11.7412 15.9134 12 15.9134C12.2589 15.9134 12.4687 15.7035 12.4687 15.4447V13.5223L13.5906 15.6857C13.6738 15.8463 13.8373 15.9387 14.007 15.9387C14.0765 15.9387 14.1472 15.9231 14.2138 15.8903L20.1643 12.9584V19.4347H20.1642ZM14.2112 14.8467L12.6463 11.829L20.4404 8.41176L21.979 11.0193L14.2112 14.8467Z" fill="white"/>
<path d="M12 18.0405C11.8038 18.0405 11.6256 17.9141 11.5592 17.7297C11.494 17.5485 11.5498 17.3391 11.6969 17.2146C11.8507 17.0845 12.0761 17.0683 12.2473 17.1741C12.4117 17.2756 12.4968 17.4746 12.4593 17.6636C12.4163 17.8801 12.2204 18.0405 12 18.0405Z" fill="white"/>
<path d="M18.2463 5.56481C18.0606 5.56481 17.8924 5.45522 17.8175 5.28539L17.1782 3.83662L15.68 3.21525C15.505 3.14264 15.3909 2.97183 15.3909 2.78236C15.3909 2.59289 15.505 2.42208 15.68 2.34947L17.1782 1.72809L17.8175 0.279328C17.8924 0.109594 18.0606 0 18.2463 0C18.4319 0 18.6001 0.109594 18.675 0.279422L19.3144 1.72819L20.8125 2.34956C20.9875 2.42217 21.1016 2.59298 21.1016 2.78245C21.1016 2.97192 20.9875 3.14273 20.8125 3.21534L19.3144 3.83672L18.675 5.28548C18.6 5.45527 18.4319 5.56481 18.2463 5.56481ZM17.0828 2.78241L17.7107 3.0428C17.822 3.08897 17.9112 3.17625 17.9599 3.28645L18.2463 3.93539L18.5326 3.28645C18.5813 3.1762 18.6705 3.08897 18.7819 3.0428L19.4097 2.78241L18.7819 2.52202C18.6705 2.47584 18.5813 2.38856 18.5326 2.27836L18.2463 1.62942L17.9599 2.27836C17.9112 2.38861 17.822 2.47589 17.7107 2.52202L17.0828 2.78241Z" fill="white"/>
</g>
<defs>
<clipPath id="clip0_413_2">
<rect width="24" height="24" fill="white"/>
</clipPath>
</defs>
</svg>
