<svg width="76" height="75" viewBox="0 0 76 75" fill="none" xmlns="http://www.w3.org/2000/svg">
<g clip-path="url(#clip0_175_307)">
<path d="M71.0497 46.5511C66.6873 42.1887 60.2539 41.1299 54.8849 43.3727V17.5069C54.8849 16.4367 54.4682 15.4305 53.7115 14.6738L40.2125 1.17327C39.8966 0.857494 39.5289 0.599514 39.13 0.406066C39.1291 0.405627 39.1282 0.405188 39.1274 0.404749C39.1091 0.395823 39.0908 0.386897 39.0723 0.378263C39.0374 0.361143 39.0018 0.345193 38.9654 0.330999C38.4668 0.11604 37.9255 0 37.378 0H4.85613C2.52114 0 0.621338 1.89966 0.621338 4.23479V70.7652C0.621338 73.1003 2.52099 75 4.85598 75H50.65C52.8859 75 54.743 73.2519 54.8777 71.0203C54.8796 70.9908 54.8805 70.9614 54.8805 70.932V70.6287C56.7048 71.3915 58.6517 71.7739 60.5991 71.7739C64.3838 71.7739 68.1685 70.3332 71.0497 67.4521C73.8411 64.6606 75.3784 60.9492 75.3784 57.0015C75.3784 53.0539 73.8411 49.3425 71.0497 46.5511ZM49.8889 14.9899H40.2191C40.0406 14.9899 39.8953 14.8446 39.8953 14.6661V4.99527L49.8889 14.9899ZM51.9539 70.8798C51.8949 71.552 51.3289 72.0734 50.6501 72.0734H4.85613C4.13472 72.0734 3.54808 71.4866 3.54808 70.7652V4.23479C3.54808 3.51338 4.13487 2.9266 4.85613 2.9266H36.9688V14.6661C36.9688 16.4583 38.427 17.9165 40.2193 17.9165H51.9585V45.011C51.3246 45.4683 50.7187 45.981 50.1486 46.5511C47.3573 49.3426 45.8199 53.054 45.8199 57.0017C45.8199 60.9494 47.3573 64.6608 50.1486 67.4523C50.7174 68.0211 51.3218 68.5328 51.9541 68.9892V70.8798H51.9539ZM68.9801 65.3827C64.3588 70.0041 56.8393 70.0041 52.2179 65.3827C49.9792 63.144 48.7462 60.1675 48.7462 57.0017C48.7462 53.8358 49.9792 50.8592 52.2179 48.6206C54.5286 46.3099 57.5638 45.1545 60.599 45.1545C63.6341 45.1545 66.6693 46.3099 68.98 48.6206C71.2187 50.8593 72.4517 53.8358 72.4517 57.0017C72.4517 60.1675 71.2188 63.144 68.9801 65.3827Z" fill="#005BAB"/>
<path d="M63.6839 58.1822L62.0721 59.8007V51.0691C62.0721 50.261 61.4168 49.6058 60.6088 49.6058C59.8007 49.6058 59.1455 50.261 59.1455 51.0691V59.8143L57.538 58.1866C56.9698 57.6116 56.0437 57.606 55.4685 58.1738C54.8935 58.7417 54.8877 59.6681 55.4556 60.2432L59.5504 64.3891C59.8246 64.6667 60.1983 64.8234 60.5886 64.8242H60.5916C60.5947 64.8242 60.5978 64.8237 60.601 64.8237C60.6036 64.8237 60.6061 64.8242 60.6088 64.8242C61.0777 64.8242 61.4941 64.6028 61.7618 64.2596L65.7577 60.2475C66.3278 59.675 66.326 58.7484 65.7534 58.1781C65.1807 57.6077 64.2543 57.6096 63.6839 58.1822Z" fill="#005BAB"/>
<path d="M10.9328 23.3221H31.3331C32.1411 23.3221 32.7964 22.667 32.7964 21.8588C32.7964 21.0506 32.1411 20.3955 31.3331 20.3955H10.9328C10.1247 20.3955 9.46948 21.0506 9.46948 21.8588C9.46948 22.667 10.1246 23.3221 10.9328 23.3221Z" fill="#005BAB"/>
<path d="M36.4211 46.7229H10.9328C10.1247 46.7229 9.46948 47.378 9.46948 48.1862C9.46948 48.9944 10.1247 49.6495 10.9328 49.6495H36.4213C37.2293 49.6495 37.8846 48.9944 37.8846 48.1862C37.8846 47.378 37.2293 46.7229 36.4211 46.7229Z" fill="#005BAB"/>
<path d="M36.4211 55.4988H10.9328C10.1247 55.4988 9.46948 56.1539 9.46948 56.9621C9.46948 57.7703 10.1247 58.4254 10.9328 58.4254H36.4213C37.2293 58.4254 37.8846 57.7703 37.8846 56.9621C37.8846 56.1539 37.2293 55.4988 36.4211 55.4988Z" fill="#005BAB"/>
<path d="M44.6491 37.9471H10.9328C10.1247 37.9471 9.46948 38.6023 9.46948 39.4104C9.46948 40.2186 10.1247 40.8737 10.9328 40.8737H44.6491C45.4572 40.8737 46.1124 40.2186 46.1124 39.4104C46.1124 38.6023 45.4572 37.9471 44.6491 37.9471Z" fill="#005BAB"/>
<path d="M10.7865 32.1926H37.1864C37.9944 32.1926 38.6497 31.5375 38.6497 30.7293C38.6497 29.9211 37.9944 29.266 37.1864 29.266H10.7865C9.97851 29.266 9.32324 29.9211 9.32324 30.7293C9.32324 31.5375 9.97836 32.1926 10.7865 32.1926Z" fill="#005BAB"/>
<path d="M44.4689 32.1933C45.2775 32.1933 45.9329 31.5379 45.9329 30.7293C45.9329 29.9207 45.2775 29.2653 44.4689 29.2653C43.6604 29.2653 43.0049 29.9207 43.0049 30.7293C43.0049 31.5379 43.6604 32.1933 44.4689 32.1933Z" fill="#005BAB"/>
</g>
<defs>
<clipPath id="clip0_175_307">
<rect width="75" height="75" fill="white" transform="translate(0.5)"/>
</clipPath>
</defs>
</svg>
