<svg width="24" height="24" viewBox="0 0 24 24" fill="none" xmlns="http://www.w3.org/2000/svg">
<g clip-path="url(#clip0_191_440)">
<path d="M13.4655 7.83932C13.4665 7.64513 13.3099 7.48699 13.1157 7.48605C13.1151 7.48605 13.1146 7.48605 13.1139 7.48605C12.9206 7.48605 12.7634 7.64232 12.7625 7.83585L12.7616 8.01293C12.5128 7.82146 12.2099 7.71305 11.8728 7.71305C11.0437 7.71305 10.1861 8.43037 10.1861 9.6307C10.1861 10.7255 10.9275 11.6162 11.8389 11.6162C12.2351 11.6162 12.5938 11.4492 12.8723 11.168C12.9276 11.28 13.0002 11.3831 13.0885 11.4719C13.2845 11.6689 13.5371 11.7774 13.7997 11.7774C14.5597 11.7774 15.0409 11.2483 15.2379 10.7531C15.5437 9.98426 15.5987 9.3364 15.4162 8.65264C15.4152 8.64903 15.4142 8.64537 15.4131 8.64176C15.1368 7.72627 14.5186 6.97665 13.6724 6.531C12.8263 6.08539 11.8583 5.9999 10.9464 6.29022C10.0823 6.56526 9.36343 7.15828 8.92218 7.95997C8.48079 8.76189 8.36474 9.68643 8.59534 10.5633C8.79511 11.3228 9.22637 11.978 9.84259 12.4581C10.4359 12.9203 11.1749 13.1863 11.9235 13.207C11.9268 13.2071 11.9301 13.2072 11.9334 13.2072C12.123 13.2072 12.2793 13.0561 12.2846 12.8654C12.29 12.6713 12.137 12.5096 11.943 12.5043C10.6914 12.4697 9.59446 11.5979 9.27531 10.3845C9.09078 9.68283 9.18414 8.94221 9.53812 8.29899C9.89214 7.65577 10.468 7.18035 11.1596 6.9602C11.8907 6.72748 12.6667 6.79601 13.3448 7.15308C14.021 7.50925 14.5156 8.10766 14.738 8.83858C14.8871 9.40146 14.7972 9.95885 14.5847 10.4933C14.5152 10.668 14.2996 11.0743 13.7997 11.0743C13.6997 11.0743 13.6234 11.0128 13.5869 10.976C13.5017 10.8903 13.4511 10.7641 13.4517 10.6385L13.4655 7.83932ZM11.8389 10.9131C11.3821 10.9131 10.8891 10.4228 10.8891 9.6307C10.8891 8.8704 11.3893 8.41612 11.8728 8.41612C12.3783 8.41612 12.7353 8.88573 12.7539 9.56504L12.7533 9.69356C12.7265 10.3724 12.3266 10.9131 11.8389 10.9131Z" fill="white"/>
<path d="M22.6592 22.4929C22.6592 22.4928 22.6592 22.4926 22.6592 22.4925V10.4995C22.6592 10.0949 22.4942 9.70035 22.2066 9.41603C22.2062 9.41565 22.2059 9.41518 22.2055 9.41481C22.2053 9.41462 22.2051 9.41443 22.2048 9.4142C22.2042 9.41359 22.2036 9.41288 22.2029 9.41228L20.8213 8.05624V7.26336C20.8213 7.06917 20.6639 6.91182 20.4697 6.91182C20.2755 6.91182 20.1182 7.06917 20.1182 7.26336V11.0017L13.7306 17.378L12.726 16.826C12.2714 16.5761 11.7285 16.5761 11.2739 16.8259L10.2692 17.378L3.88162 11.0017V4.93319C3.88162 4.48092 4.24961 4.11293 4.70187 4.11293H19.2979C19.7502 4.11293 20.1182 4.48092 20.1182 4.93319V5.76698C20.1182 5.96117 20.2755 6.11852 20.4697 6.11852C20.6639 6.11852 20.8213 5.96117 20.8213 5.76698V4.93319C20.8213 4.0932 20.1379 3.40986 19.2979 3.40986H16.0872L13.0224 0.401835C13.0191 0.398554 13.0157 0.39532 13.0122 0.392227C12.4351 -0.130719 11.5647 -0.130766 10.9876 0.392227C10.9841 0.39532 10.9807 0.398554 10.9774 0.401835L7.91257 3.40986H4.70183C3.86189 3.40986 3.1785 4.0932 3.1785 4.93319V8.05628L1.79682 9.41232C1.79626 9.41289 1.7957 9.41349 1.79514 9.4141C1.79485 9.41438 1.79457 9.41457 1.79429 9.41485C1.79378 9.41537 1.79335 9.41593 1.79289 9.4164C1.50547 9.70072 1.34058 10.0951 1.34058 10.4995V14.511C1.34058 14.7052 1.49797 14.8625 1.69211 14.8625C1.88625 14.8625 2.04365 14.7052 2.04365 14.511V10.4995C2.04365 10.4012 2.06259 10.3044 2.09661 10.2134L3.28167 11.3963L9.62732 17.7307L2.0437 21.8982V16.043C2.0437 15.8489 1.8863 15.6915 1.69216 15.6915C1.49802 15.6915 1.34062 15.8489 1.34062 16.043V22.4925V22.4929C1.34062 22.4947 1.34072 22.4966 1.34076 22.4984C1.344 23.3269 2.01885 24 2.84815 24H15.8267C16.0209 24 16.1782 23.8427 16.1782 23.6485C16.1782 23.4543 16.0209 23.2969 15.8267 23.2969H2.84815C2.47168 23.2969 2.15572 23.0367 2.06844 22.6868L10.3767 18.1211L11.6125 17.4421C11.8551 17.3088 12.1447 17.3087 12.3873 17.4421L13.623 18.1211L21.9313 22.6869C21.8441 23.0367 21.528 23.2969 21.1516 23.2969H17.3588C17.1646 23.2969 17.0072 23.4543 17.0072 23.6485C17.0072 23.8427 17.1646 24 17.3588 24H21.1517C21.9809 24 22.6558 23.3269 22.6591 22.4984C22.6591 22.4966 22.6592 22.4947 22.6592 22.4929ZM11.4644 0.908985C11.7709 0.63563 12.229 0.635584 12.5354 0.908985L15.0835 3.40986H8.91633L11.4644 0.908985ZM3.17855 10.2999L2.54283 9.66529L3.17855 9.04138V10.2999ZM20.7181 11.3963L21.9032 10.2133C21.9372 10.3044 21.9561 10.4012 21.9561 10.4995V21.8981L14.3724 17.7307L20.7181 11.3963ZM21.457 9.66529L20.8213 10.2999V9.04138L21.457 9.66529Z" fill="white"/>
</g>
<defs>
<clipPath id="clip0_191_440">
<rect width="24" height="24" fill="white"/>
</clipPath>
</defs>
</svg>
