<svg width="24" height="25" viewBox="0 0 24 25" fill="none" xmlns="http://www.w3.org/2000/svg">
<g clip-path="url(#clip0_191_330)">
<path d="M20.4853 4.01469C18.2188 1.74823 15.2053 0.5 12 0.5C8.79469 0.5 5.78123 1.74823 3.51469 4.01469C1.24823 6.28123 0 9.29469 0 12.5C0 15.7053 1.24823 18.7188 3.51469 20.9853C5.78123 23.2518 8.79469 24.5 12 24.5C15.2053 24.5 18.2188 23.2518 20.4853 20.9853C22.7518 18.7188 24 15.7053 24 12.5C24 9.29469 22.7518 6.28123 20.4853 4.01469ZM19.9881 20.4881C18.3901 22.0861 16.3977 23.1463 14.2304 23.578V15.8576H15.84C16.1743 15.8576 16.4645 15.6311 16.5456 15.3067L17.1092 13.0521C17.1639 12.8333 17.1157 12.6059 16.9769 12.4281C16.8381 12.2504 16.6291 12.1484 16.4036 12.1484H13.8788C13.6847 12.1484 13.5273 12.3058 13.5273 12.5C13.5273 12.6942 13.6847 12.8516 13.8788 12.8516H16.4036C16.4071 12.8516 16.4154 12.8516 16.4227 12.8609C16.43 12.8702 16.428 12.8782 16.4271 12.8817L15.8635 15.1362C15.8608 15.147 15.8511 15.1545 15.84 15.1545H13.8788C13.6847 15.1545 13.5273 15.3119 13.5273 15.5061V23.6944C13.0251 23.7618 12.5153 23.7969 12 23.7969C8.98247 23.7969 6.14559 22.6218 4.01189 20.4881C1.87819 18.3544 0.703125 15.5175 0.703125 12.5C0.703125 9.48247 1.87819 6.64559 4.01189 4.51189C6.14559 2.37819 8.98247 1.20312 12 1.20312C15.0175 1.20312 17.8544 2.37819 19.9881 4.51189C22.1218 6.64559 23.2969 9.48247 23.2969 12.5C23.2969 15.5175 22.1218 18.3544 19.9881 20.4881Z" fill="white"/>
<path d="M16.5091 5.00928H14.2546C11.7816 5.00928 9.76972 7.0212 9.76972 9.49418V12.1487H7.49098C7.08992 12.1487 6.76367 12.4749 6.76367 12.876V15.1305C6.76367 15.5316 7.08992 15.8578 7.49098 15.8578H9.76972V22.2699C9.76972 22.4641 9.92713 22.6215 10.1213 22.6215C10.3154 22.6215 10.4728 22.4641 10.4728 22.2699V15.5063C10.4728 15.3121 10.3154 15.1547 10.1213 15.1547H7.49098C7.47763 15.1547 7.4668 15.1439 7.4668 15.1305V12.876C7.4668 12.8626 7.47763 12.8518 7.49098 12.8518H10.1213C10.3154 12.8518 10.4728 12.6944 10.4728 12.5002V9.49418C10.4728 7.4089 12.1693 5.7124 14.2546 5.7124H16.5091C16.5225 5.7124 16.5333 5.72323 16.5333 5.73659V7.99114C16.5333 8.0045 16.5225 8.01532 16.5091 8.01532H15.0061C14.1907 8.01532 13.5273 8.6787 13.5273 9.49414V10.9971C13.5273 11.1913 13.6847 11.3487 13.8789 11.3487C14.073 11.3487 14.2304 11.1913 14.2304 10.9971V9.49414C14.2304 9.0664 14.5784 8.71845 15.0061 8.71845H16.5091C16.9102 8.71845 17.2364 8.3922 17.2364 7.99114V5.73659C17.2364 5.33557 16.9102 5.00928 16.5091 5.00928Z" fill="white"/>
</g>
<defs>
<clipPath id="clip0_191_330">
<rect width="24" height="24" fill="white" transform="translate(0 0.5)"/>
</clipPath>
</defs>
</svg>
