<svg width="24" height="25" viewBox="0 0 24 25" fill="none" xmlns="http://www.w3.org/2000/svg">
<g clip-path="url(#clip0_191_403)">
<path d="M20.4853 4.01478C18.2188 1.74819 15.2053 0.5 12 0.5C8.79473 0.5 5.78123 1.74819 3.51473 4.01478C1.24819 6.28123 0 9.29473 0 12.5C0 15.7053 1.24819 18.7188 3.51473 20.9853C5.78123 23.2518 8.79473 24.5 12 24.5C15.2053 24.5 18.2188 23.2518 20.4853 20.9852C22.7518 18.7188 24 15.7053 24 12.5C24 9.29473 22.7518 6.28123 20.4853 4.01478ZM12 23.7421C5.80106 23.7421 0.757875 18.6989 0.757875 12.5C0.757875 6.30106 5.80106 1.25787 12 1.25787C18.1989 1.25787 23.2421 6.30106 23.2421 12.5C23.2421 18.6989 18.1989 23.7421 12 23.7421Z" fill="white"/>
<path d="M8.46313 10.1001H5.9368C5.7275 10.1001 5.55786 10.2697 5.55786 10.479V18.058C5.55786 18.2673 5.72755 18.4369 5.9368 18.4369H8.46313C8.67242 18.4369 8.84206 18.2673 8.84206 18.058V10.479C8.84211 10.2697 8.67242 10.1001 8.46313 10.1001ZM8.08419 17.679H6.31578V10.858H8.08419V17.679Z" fill="white"/>
<path d="M6.94722 5.55273C5.90243 5.55273 5.05249 6.40267 5.05249 7.44747C5.05249 8.49227 5.90243 9.3422 6.94722 9.3422C7.99202 9.3422 8.84196 8.49227 8.84196 7.44747C8.84196 6.40267 7.99202 5.55273 6.94722 5.55273ZM6.94722 8.58433C6.32037 8.58433 5.81037 8.07433 5.81037 7.44747C5.81037 6.82066 6.32032 6.31061 6.94722 6.31061C7.57408 6.31061 8.08408 6.82061 8.08408 7.44747C8.08408 8.07433 7.57413 8.58433 6.94722 8.58433Z" fill="white"/>
<path d="M15.5369 10.1001C14.7844 10.1001 14.043 10.2949 13.3895 10.6577V10.4791C13.3895 10.2698 13.2198 10.1001 13.0106 10.1001H10.9895C10.7802 10.1001 10.6106 10.2698 10.6106 10.4791V18.058C10.6106 18.2673 10.7803 18.437 10.9895 18.437H13.5159C13.7252 18.437 13.8948 18.2673 13.8948 18.058V15.3374C13.8948 14.4464 14.092 13.3843 15.0317 13.3843C15.7329 13.3843 16.0205 13.9759 16.1214 14.6464C16.149 14.8302 16.3083 14.9655 16.4943 14.9655C16.7277 14.9655 16.9032 14.7562 16.8672 14.5257C16.6769 13.3082 16.0315 12.6265 15.0317 12.6265C13.8275 12.6265 13.1369 13.6146 13.1369 15.3374V17.6791H11.3685V10.858H12.6317V11.3563C12.6317 11.4738 12.6806 11.5886 12.7725 11.6618C12.9151 11.7756 13.1116 11.7716 13.2477 11.6624C13.904 11.1362 14.6956 10.858 15.5369 10.858C17.7183 10.858 18.6948 12.6978 18.6948 14.5211V17.679H16.9264V16.4312C16.9264 16.2225 16.7572 16.0533 16.5486 16.0533H16.5464C16.3377 16.0533 16.1686 16.2225 16.1686 16.4312V18.0579C16.1686 18.2672 16.3383 18.4369 16.5475 18.4369H19.0738C19.2831 18.4369 19.4528 18.2672 19.4528 18.0579V14.5211C19.4527 11.9181 17.8425 10.1001 15.5369 10.1001Z" fill="white"/>
</g>
<defs>
<clipPath id="clip0_191_403">
<rect width="24" height="24" fill="white" transform="translate(0 0.5)"/>
</clipPath>
</defs>
</svg>
