<svg width="25" height="24" viewBox="0 0 25 24" fill="none" xmlns="http://www.w3.org/2000/svg">
<path d="M12.2623 1.87526C12.0031 1.87338 11.7917 2.08198 11.7898 2.34073C11.7879 2.59948 11.9961 2.81088 12.2553 2.81276C12.514 2.81463 12.7254 2.60651 12.7273 2.34776C12.7292 2.08901 12.5211 1.8776 12.2623 1.87526Z" fill="white"/>
<path d="M12.241 4.68771C10.4311 4.67486 8.94884 6.13497 8.93515 7.94431C8.92151 9.75354 10.3824 11.2365 12.1918 11.2501C12.2001 11.2502 12.2085 11.2502 12.2169 11.2502C14.0147 11.2502 15.484 9.79447 15.4976 7.99353C15.5112 6.18438 14.0504 4.70135 12.241 4.68771ZM12.2168 10.3128C12.2109 10.3128 12.2047 10.3127 12.1988 10.3127C10.9064 10.3029 9.86286 9.24364 9.87261 7.95134C9.88231 6.66485 10.9318 5.62507 12.2159 5.62507C12.2218 5.62507 12.228 5.62511 12.2339 5.62516C13.5263 5.63491 14.5699 6.69419 14.5601 7.98649C14.5504 9.27298 13.501 10.3128 12.2168 10.3128Z" fill="white"/>
<path d="M14.2615 2.23069C14.0177 2.14416 13.7496 2.27189 13.663 2.51593C13.5766 2.75996 13.7043 3.02785 13.9483 3.11438C16.013 3.84615 17.389 5.8126 17.3725 8.00762C17.3706 8.26647 17.5788 8.47792 17.8377 8.47989C17.8389 8.47989 17.8401 8.47989 17.8413 8.47989C18.0985 8.47989 18.308 8.27233 18.31 8.01466C18.3295 5.42026 16.7025 3.09586 14.2615 2.23069Z" fill="white"/>
<path d="M15.0924 17.6458C18.2102 13.6325 20.1586 11.5398 20.1849 8.02867C20.2179 3.61102 16.6328 0 12.2155 0C7.84975 0 4.28077 3.53569 4.24758 7.90914C4.22077 11.5155 6.20541 13.6054 9.34473 17.6451C6.22168 18.1118 4.24758 19.2845 4.24758 20.7188C4.24758 21.6796 5.13568 22.5418 6.74832 23.1465C8.21612 23.6969 10.158 24 12.2163 24C14.2745 24 16.2164 23.6969 17.6842 23.1465C19.2968 22.5417 20.1849 21.6795 20.1849 20.7187C20.1849 19.2852 18.2127 18.1128 15.0924 17.6458ZM5.18504 7.91622C5.21429 4.05704 8.36312 0.937502 12.2156 0.937502C16.1137 0.937502 19.2765 4.12445 19.2475 8.02169C19.2225 11.3561 17.1562 13.411 13.8573 17.7114C13.2688 18.4781 12.7285 19.203 12.217 19.9121C11.707 19.2026 11.1774 18.4907 10.5801 17.7111C7.14484 13.2306 5.15963 11.3311 5.18504 7.91622ZM12.2163 23.0625C8.19198 23.0625 5.18504 21.8252 5.18504 20.7188C5.18504 19.8983 6.9826 18.8618 10.005 18.5029C10.6731 19.3795 11.2589 20.1759 11.8334 20.9893C11.9211 21.1135 12.0637 21.1874 12.2158 21.1875C12.216 21.1875 12.2161 21.1875 12.2163 21.1875C12.3682 21.1875 12.5108 21.1139 12.5987 20.9899C13.1677 20.1871 13.7695 19.371 14.4319 18.5034C17.4515 18.8627 19.2475 19.8989 19.2475 20.7188C19.2474 21.8252 16.2405 23.0625 12.2163 23.0625Z" fill="white"/>
</svg>
