<svg width="40" height="40" viewBox="0 0 40 40" fill="none" xmlns="http://www.w3.org/2000/svg">
<g clip-path="url(#clip0_175_505)">
<path d="M18.6375 11.8779H16.5615V9.80192C16.5615 9.37044 16.2117 9.02075 15.7804 9.02075C15.349 9.02075 14.9992 9.37052 14.9992 9.80192V11.8779H12.9233C12.4919 11.8779 12.1421 12.2276 12.1421 12.659C12.1421 13.0904 12.4919 13.4402 12.9233 13.4402H14.9992V15.5161C14.9992 15.9476 15.349 16.2973 15.7804 16.2973C16.2117 16.2973 16.5615 15.9475 16.5615 15.5161V13.4402H18.6375C19.0689 13.4402 19.4186 13.0904 19.4186 12.659C19.4186 12.2276 19.0689 11.8779 18.6375 11.8779Z" fill="#005BAB"/>
<path d="M15.7801 5.78455C11.9895 5.78455 8.90552 8.86852 8.90552 12.6591C8.90552 16.4498 11.9895 19.5337 15.7801 19.5337C19.5707 19.5337 22.6547 16.4498 22.6547 12.6591C22.6547 8.86852 19.5707 5.78455 15.7801 5.78455ZM15.7801 17.9712C12.851 17.9712 10.4679 15.5882 10.4679 12.6591C10.4679 9.72993 12.851 7.34689 15.7801 7.34689C18.7092 7.34689 21.0923 9.72993 21.0923 12.6591C21.0923 15.5882 18.7092 17.9712 15.7801 17.9712Z" fill="#005BAB"/>
<path d="M31.3317 7.18277L24.379 0.230048C24.2325 0.0835643 24.0338 0.0012207 23.8266 0.0012207H2.34359C1.05133 0.0012207 0 1.05262 0 2.34489V37.6553C0 38.9476 1.05133 39.9989 2.34359 39.9989H17.2661C17.6975 39.9989 18.0473 39.649 18.0473 39.2177C18.0473 38.7864 17.6975 38.4365 17.2661 38.4365H2.34359C1.91281 38.4365 1.56242 38.0861 1.56242 37.6554V2.34489C1.56242 1.91411 1.91289 1.56372 2.34359 1.56372H23.0453V6.17277C23.0453 7.46503 24.0967 8.51636 25.3889 8.51636H29.998V22.4217C29.998 22.8531 30.3478 23.2029 30.7792 23.2029C31.2105 23.2029 31.5603 22.8531 31.5603 22.4217V7.73511C31.5605 7.52793 31.4781 7.32925 31.3317 7.18277ZM25.389 6.95394C24.9582 6.95394 24.6078 6.60347 24.6078 6.17277V2.66848L28.8934 6.95394H25.389Z" fill="#005BAB"/>
<path d="M25.7797 21.8748H12.2128C11.7814 21.8748 11.4316 22.2246 11.4316 22.6559C11.4316 23.0873 11.7815 23.4371 12.2128 23.4371H25.7797C26.2111 23.4371 26.5608 23.0873 26.5608 22.6559C26.5609 22.2246 26.2111 21.8748 25.7797 21.8748Z" fill="#005BAB"/>
<path d="M8.32639 21.8748H5.78093C5.34952 21.8748 4.99976 22.2246 4.99976 22.6559C4.99976 23.0873 5.3496 23.4371 5.78093 23.4371H8.32639C8.7578 23.4371 9.10756 23.0873 9.10756 22.6559C9.10756 22.2246 8.7578 21.8748 8.32639 21.8748Z" fill="#005BAB"/>
<path d="M19.9988 26.2495H12.2128C11.7814 26.2495 11.4316 26.5994 11.4316 27.0307C11.4316 27.462 11.7815 27.8119 12.2128 27.8119H19.9988C20.4302 27.8119 20.78 27.4621 20.78 27.0307C20.78 26.5994 20.4302 26.2495 19.9988 26.2495Z" fill="#005BAB"/>
<path d="M8.32639 26.2495H5.78093C5.34952 26.2495 4.99976 26.5994 4.99976 27.0307C4.99976 27.462 5.3496 27.8119 5.78093 27.8119H8.32639C8.7578 27.8119 9.10756 27.462 9.10756 27.0307C9.10756 26.5994 8.7578 26.2495 8.32639 26.2495Z" fill="#005BAB"/>
<path d="M12.7647 30.8532C12.6194 30.7079 12.4186 30.6243 12.2124 30.6243C12.0069 30.6243 11.8062 30.7078 11.6601 30.8532C11.5147 30.9985 11.4312 31.2 11.4312 31.4055C11.4312 31.611 11.5147 31.8125 11.6601 31.9578C11.8054 32.1031 12.0069 32.1868 12.2124 32.1868C12.4187 32.1868 12.6194 32.1032 12.7647 31.9578C12.9108 31.8125 12.9936 31.611 12.9936 31.4055C12.9936 31.2 12.9108 30.9985 12.7647 30.8532Z" fill="#005BAB"/>
<path d="M8.32639 30.6243H5.78093C5.34952 30.6243 4.99976 30.9741 4.99976 31.4054C4.99976 31.8368 5.3496 32.1866 5.78093 32.1866H8.32639C8.7578 32.1866 9.10756 31.8368 9.10756 31.4054C9.10764 30.9741 8.7578 30.6243 8.32639 30.6243Z" fill="#005BAB"/>
<path d="M35.1563 30.3116C34.927 30.3116 34.7017 30.3287 34.4809 30.3597C34.9732 28.7086 34.5688 26.845 33.2676 25.5436C32.3527 24.6288 31.1365 24.125 29.8427 24.125C28.5489 24.125 27.3326 24.6288 26.4179 25.5436L20.2311 31.7303C19.3163 32.6451 18.8125 33.8614 18.8125 35.1551C18.8125 36.449 19.3163 37.6652 20.2311 38.58C21.1755 39.5243 22.4155 39.9963 23.6559 39.9963C24.8961 39.9963 26.1366 39.524 27.0808 38.58L30.3176 35.3431C30.4169 37.9269 32.5487 39.9986 35.1564 39.9986C37.8272 39.9986 39.9999 37.8258 39.9999 35.1551C39.9999 32.4843 37.8271 30.3116 35.1563 30.3116ZM25.9758 37.4752C24.6966 38.7546 22.6151 38.7546 21.3359 37.4752C20.7161 36.8555 20.3748 36.0316 20.3748 35.1552C20.3748 34.2788 20.7161 33.4548 21.3359 32.8352L23.8769 30.2942L28.5169 34.9343L25.9758 37.4752ZM29.6215 33.8294L24.9815 29.1894L27.5226 26.6484C28.1423 26.0287 28.9662 25.6874 29.8426 25.6874C30.719 25.6874 31.5429 26.0287 32.1626 26.6484C33.4418 27.9277 33.4418 30.0092 32.1626 31.2884L29.6215 33.8294ZM34.3751 38.3415C32.942 37.99 31.8752 36.6951 31.8752 35.1551C31.8752 33.6151 32.9419 32.3202 34.3751 31.9688V38.3415ZM35.9375 38.3415V31.9687C37.3707 32.3202 38.4374 33.6151 38.4374 35.1551C38.4374 36.695 37.3707 37.99 35.9375 38.3415Z" fill="#005BAB"/>
</g>
<defs>
<clipPath id="clip0_175_505">
<rect width="40" height="40" fill="white"/>
</clipPath>
</defs>
</svg>
