<svg width="18" height="14" viewBox="0 0 18 14" fill="none" xmlns="http://www.w3.org/2000/svg">
<path d="M11.4747 13.6789C11.2459 13.6789 11.0147 13.6344 10.7936 13.5428C10.1315 13.2688 9.70371 12.6312 9.70371 11.9185V10.4056C9.70371 10.0173 10.0185 9.70237 10.4068 9.70237C10.7952 9.70237 11.1101 10.0173 11.1101 10.4056V11.9185C11.1101 12.1291 11.2649 12.2158 11.3313 12.2434C11.399 12.2714 11.5729 12.3201 11.7245 12.1684L16.3885 7.49864C16.6633 7.22357 16.6633 6.77601 16.3885 6.50094L11.7245 1.83132C11.5729 1.67957 11.399 1.72819 11.3315 1.7562C11.2649 1.7838 11.1101 1.8706 11.1101 2.08126V6.33175C11.1101 7.10725 10.4792 7.73814 9.70371 7.73814H0.703128C0.314759 7.73814 0 7.42338 0 7.03501C0 6.64665 0.314759 6.33175 0.703128 6.33175H9.70371V2.08126C9.70371 1.36852 10.1315 0.730761 10.7936 0.456788C11.458 0.181854 12.214 0.331269 12.7195 0.837466L17.3835 5.50709C18.2055 6.33024 18.2055 7.66948 17.3835 8.49263L12.7195 13.1623C12.3822 13.4999 11.9334 13.6787 11.4747 13.6789Z" fill="white"/>
</svg>
