<svg width="22" height="22" viewBox="0 0 22 22" fill="none" xmlns="http://www.w3.org/2000/svg">
<path d="M21.4194 3.34679V18.0726C21.4194 19.9181 19.9181 21.4194 18.0726 21.4194H9.66385C7.81837 21.4194 6.31706 19.9181 6.31706 18.0726V16.3993C6.31706 15.9371 6.69161 15.5626 7.15376 15.5626C7.6159 15.5626 7.99045 15.9371 7.99045 16.3993V18.0726C7.99045 18.9953 8.74119 19.746 9.66385 19.746H18.0726C18.9953 19.746 19.746 18.9953 19.746 18.0726V3.34679C19.746 2.42413 18.9953 1.67339 18.0726 1.67339H9.66385C8.74119 1.67339 7.99045 2.42413 7.99045 3.34679V5.02018C7.99045 5.48232 7.6159 5.85688 7.15376 5.85688C6.69161 5.85688 6.31706 5.48232 6.31706 5.02018V3.34679C6.31706 1.50131 7.81837 0 9.66385 0H18.0726C19.9181 0 21.4194 1.50131 21.4194 3.34679ZM9.45108 12.8768C9.1231 13.2023 9.12097 13.7321 9.44634 14.0601C9.60992 14.225 9.82514 14.3075 10.0404 14.3075C10.2535 14.3075 10.4666 14.2266 10.6296 14.0648L12.5183 12.1911C12.9167 11.7958 13.1361 11.2697 13.1361 10.7097C13.1361 10.1497 12.9167 9.62365 12.5183 9.22834L10.6296 7.3546C10.3017 7.02923 9.77186 7.03119 9.44634 7.35933C9.12097 7.68731 9.1231 8.21711 9.45108 8.54248L10.7921 9.87302H0.836697C0.374552 9.87302 0 10.2476 0 10.7097C0 11.1719 0.374552 11.5464 0.836697 11.5464H10.7921L9.45108 12.8768Z" fill="white"/>
</svg>
