<svg width="24" height="25" viewBox="0 0 24 25" fill="none" xmlns="http://www.w3.org/2000/svg">
<g clip-path="url(#clip0_191_334)">
<path d="M20.4853 4.01473C18.2188 1.74819 15.2053 0.5 12 0.5C8.79473 0.5 5.78123 1.74819 3.51473 4.01473C1.24819 6.28123 0 9.29473 0 12.5C0 15.7053 1.24819 18.7188 3.51473 20.9853C5.78123 23.2518 8.79473 24.5 12 24.5C15.2053 24.5 18.2188 23.2518 20.4853 20.9853C22.7518 18.7187 24 15.7053 24 12.5C24 9.29473 22.7518 6.28123 20.4853 4.01473ZM12 23.7421C5.80106 23.7421 0.757875 18.6989 0.757875 12.5C0.757875 6.30106 5.80106 1.25787 12 1.25787C18.1989 1.25787 23.2421 6.30106 23.2421 12.5C23.2421 18.6989 18.1989 23.7421 12 23.7421Z" fill="white"/>
<path d="M20.454 8.11193C20.34 8.0133 20.1747 7.99647 20.038 8.05989C19.8419 8.15083 19.6416 8.23071 19.4377 8.29929C19.6399 8.02347 19.8014 7.717 19.9153 7.38841C19.9623 7.25289 19.9389 7.09891 19.8417 6.99339C19.7202 6.86149 19.5266 6.83374 19.3747 6.92027C18.8209 7.23588 18.2236 7.45024 17.5967 7.55861C16.8956 6.91507 15.9935 6.56299 15.0353 6.56299C13.0519 6.56299 11.4191 8.09308 11.2549 10.0348C10.8452 9.97085 10.0435 9.74224 9.85184 9.67957C8.46523 9.2073 7.21615 8.37578 6.23895 7.27455C6.18101 7.20925 6.1047 7.16069 6.01887 7.14499C5.84637 7.11349 5.68273 7.20058 5.60895 7.34838C5.36609 7.83508 5.2429 8.35844 5.2429 8.90393C5.2429 9.65829 5.47906 10.3693 5.90445 10.9538C5.77189 10.9289 5.63079 10.9754 5.53826 11.0892C5.48506 11.1547 5.45843 11.2377 5.45529 11.322C5.45389 11.3605 5.45262 11.399 5.45262 11.4379C5.45262 12.4606 5.9209 13.3901 6.67774 13.9967C6.62548 14.0321 6.58142 14.0809 6.55104 14.1412C6.5059 14.2304 6.50089 14.3354 6.5307 14.4308C6.86126 15.4882 7.68251 16.2935 8.70064 16.6236C7.77846 17.185 6.71178 17.4877 5.62193 17.4877C5.5257 17.4877 5.42665 17.4852 5.3276 17.4804C5.13795 17.4717 4.96784 17.6041 4.93521 17.7965C4.90859 17.9535 4.98968 18.1105 5.12679 18.1914C6.51982 19.013 8.11432 19.4472 9.73882 19.4472C11.6776 19.4472 13.5244 18.8434 15.0642 17.7258C15.2541 17.5878 15.275 17.3123 15.1091 17.1463L15.109 17.1461C14.9753 17.0125 14.765 16.9981 14.6119 17.109C13.2396 18.1026 11.5553 18.6893 9.73878 18.6893C8.7207 18.6893 7.71556 18.5033 6.7737 18.1451C7.9129 17.945 8.98971 17.451 9.88662 16.7055C9.995 16.6154 10.052 16.4729 10.0248 16.3346C9.98989 16.1581 9.83857 16.0332 9.6635 16.0283C8.74071 16.0022 7.91693 15.4923 7.47453 14.713C7.68551 14.7029 7.89668 14.674 8.10453 14.6267C8.26306 14.5906 8.39135 14.464 8.41198 14.3027C8.43678 14.1085 8.31195 13.9312 8.12674 13.8856C7.13689 13.6419 6.40892 12.8373 6.24518 11.858C6.53534 11.926 6.83693 11.9561 7.13801 11.9469C7.32378 11.9413 7.481 11.8011 7.50326 11.611C7.52079 11.4611 7.44124 11.3161 7.31248 11.2376C6.49081 10.7368 6.00068 9.86543 6.00068 8.90397C6.00068 8.66894 6.02989 8.43911 6.08782 8.21655C7.08125 9.19877 8.28692 9.94727 9.60748 10.3971C9.61957 10.4012 10.9243 10.8074 11.4185 10.8094C11.4508 10.8102 11.6049 10.817 11.6051 10.817C11.7639 10.8235 11.9179 10.7271 11.9779 10.5674C11.9952 10.5215 12.0014 10.4722 12.0003 10.4233C11.9997 10.4012 11.9992 10.3791 11.9992 10.3569C11.9992 8.68286 13.3611 7.32091 15.0352 7.32091C15.8549 7.32091 16.6233 7.64304 17.1989 8.22785C17.2822 8.31255 17.3996 8.35427 17.5173 8.33796C17.9029 8.28447 18.2793 8.19616 18.644 8.07396C18.4499 8.28696 18.221 8.46944 17.9643 8.61321C17.7912 8.7101 17.7178 8.92061 17.7994 9.10141L17.8049 9.11379C17.8717 9.26154 18.0248 9.35027 18.1863 9.33503C18.4998 9.30513 18.8089 9.25352 19.1122 9.18077C18.8439 9.45752 18.5488 9.70891 18.2287 9.93316C18.1242 10.0063 18.0642 10.1276 18.0686 10.255L18.0694 10.2789C18.0702 10.3048 18.0712 10.3308 18.0712 10.3569V10.3912C18.0625 12.5141 17.2527 14.4531 15.9305 15.9221C15.7954 16.0722 15.8039 16.3026 15.9467 16.4454C16.1019 16.6007 16.3554 16.5931 16.5024 16.4298C17.9879 14.7795 18.8097 12.6714 18.8289 10.4344C19.5049 9.93086 20.0756 9.31525 20.5271 8.60196C20.6264 8.44516 20.5985 8.23689 20.454 8.11193Z" fill="white"/>
</g>
<defs>
<clipPath id="clip0_191_334">
<rect width="24" height="24" fill="white" transform="translate(0 0.5)"/>
</clipPath>
</defs>
</svg>
